<?xml version="1.0" encoding="UTF-8" standalone="no"?>
<!-- Created with Inkscape (http://www.inkscape.org/) -->

<svg
   version="1.1"
   id="svg2302"
   width="1163.5708"
   height="831.12915"
   viewBox="0 0 1163.5708 831.12915"
   sodipodi:docname="graphlegend.svg"
   inkscape:version="1.2 (dc2aeda, 2022-05-15)"
   xmlns:inkscape="http://www.inkscape.org/namespaces/inkscape"
   xmlns:sodipodi="http://sodipodi.sourceforge.net/DTD/sodipodi-0.dtd"
   xmlns="http://www.w3.org/2000/svg"
   xmlns:svg="http://www.w3.org/2000/svg">
  <defs
     id="defs2306">
    <clipPath
       clipPathUnits="userSpaceOnUse"
       id="clipPath2322">
      <path
         d="M 84.278125,61.746875 H 865.47813 V 616.14688 H 84.278125 Z"
         id="path2320" />
    </clipPath>
    <clipPath
       clipPathUnits="userSpaceOnUse"
       id="clipPath2332">
      <path
         d="M 84.278125,61.746875 H 865.47813 V 616.14688 H 84.278125 Z"
         id="path2330" />
    </clipPath>
    <clipPath
       clipPathUnits="userSpaceOnUse"
       id="clipPath2342">
      <path
         d="M 84.278125,61.746875 H 865.47813 V 616.14688 H 84.278125 Z"
         id="path2340" />
    </clipPath>
    <clipPath
       clipPathUnits="userSpaceOnUse"
       id="clipPath2352">
      <path
         d="M 84.278125,61.746875 H 865.47813 V 616.14688 H 84.278125 Z"
         id="path2350" />
    </clipPath>
    <clipPath
       clipPathUnits="userSpaceOnUse"
       id="clipPath2362">
      <path
         d="M 84.278125,61.746875 H 865.47813 V 616.14688 H 84.278125 Z"
         id="path2360" />
    </clipPath>
    <clipPath
       clipPathUnits="userSpaceOnUse"
       id="clipPath2372">
      <path
         d="M 84.278125,61.746875 H 865.47813 V 616.14688 H 84.278125 Z"
         id="path2370" />
    </clipPath>
    <clipPath
       clipPathUnits="userSpaceOnUse"
       id="clipPath2382">
      <path
         d="M 84.278125,61.746875 H 865.47813 V 616.14688 H 84.278125 Z"
         id="path2380" />
    </clipPath>
    <clipPath
       clipPathUnits="userSpaceOnUse"
       id="clipPath2392">
      <path
         d="M 84.278125,61.746875 H 865.47813 V 616.14688 H 84.278125 Z"
         id="path2390" />
    </clipPath>
    <clipPath
       clipPathUnits="userSpaceOnUse"
       id="clipPath2402">
      <path
         d="M 84.278125,61.746875 H 865.47813 V 616.14688 H 84.278125 Z"
         id="path2400" />
    </clipPath>
    <clipPath
       clipPathUnits="userSpaceOnUse"
       id="clipPath2412">
      <path
         d="M 84.278125,61.746875 H 865.47813 V 616.14688 H 84.278125 Z"
         id="path2410" />
    </clipPath>
    <clipPath
       clipPathUnits="userSpaceOnUse"
       id="clipPath2422">
      <path
         d="M 84.278125,61.746875 H 865.47813 V 616.14688 H 84.278125 Z"
         id="path2420" />
    </clipPath>
    <clipPath
       clipPathUnits="userSpaceOnUse"
       id="clipPath2432">
      <path
         d="M 84.278125,61.746875 H 865.47813 V 616.14688 H 84.278125 Z"
         id="path2430" />
    </clipPath>
    <clipPath
       clipPathUnits="userSpaceOnUse"
       id="clipPath2442">
      <path
         d="M 84.278125,61.746875 H 865.47813 V 616.14688 H 84.278125 Z"
         id="path2440" />
    </clipPath>
    <clipPath
       clipPathUnits="userSpaceOnUse"
       id="clipPath2460">
      <path
         d="M 84.278125,61.746875 H 865.47813 V 616.14688 H 84.278125 Z"
         id="path2458" />
    </clipPath>
    <clipPath
       clipPathUnits="userSpaceOnUse"
       id="clipPath2478">
      <path
         d="M 84.278125,61.746875 H 865.47813 V 616.14688 H 84.278125 Z"
         id="path2476" />
    </clipPath>
    <clipPath
       clipPathUnits="userSpaceOnUse"
       id="clipPath2496">
      <path
         d="M 84.278125,61.746875 H 865.47813 V 616.14688 H 84.278125 Z"
         id="path2494" />
    </clipPath>
    <clipPath
       clipPathUnits="userSpaceOnUse"
       id="clipPath2514">
      <path
         d="M 84.278125,61.746875 H 865.47813 V 616.14688 H 84.278125 Z"
         id="path2512" />
    </clipPath>
    <clipPath
       clipPathUnits="userSpaceOnUse"
       id="clipPath2532">
      <path
         d="M 84.278125,61.746875 H 865.47813 V 616.14688 H 84.278125 Z"
         id="path2530" />
    </clipPath>
    <clipPath
       clipPathUnits="userSpaceOnUse"
       id="clipPath2558">
      <path
         d="M -1021,-463 H 1794 V 1233 H -1021 Z"
         id="path2556" />
    </clipPath>
    <clipPath
       clipPathUnits="userSpaceOnUse"
       id="clipPath2570">
      <path
         d="M -1021,-463 H 1794 V 1233 H -1021 Z"
         id="path2568" />
    </clipPath>
    <clipPath
       clipPathUnits="userSpaceOnUse"
       id="clipPath2580">
      <path
         d="M 84.278125,61.746875 H 865.47813 V 616.14688 H 84.278125 Z"
         id="path2578" />
    </clipPath>
    <clipPath
       clipPathUnits="userSpaceOnUse"
       id="clipPath2598">
      <path
         d="M 84.278125,61.746875 H 865.47813 V 616.14688 H 84.278125 Z"
         id="path2596" />
    </clipPath>
    <clipPath
       clipPathUnits="userSpaceOnUse"
       id="clipPath2616">
      <path
         d="M 84.278125,61.746875 H 865.47813 V 616.14688 H 84.278125 Z"
         id="path2614" />
    </clipPath>
    <clipPath
       clipPathUnits="userSpaceOnUse"
       id="clipPath2634">
      <path
         d="M 84.278125,61.746875 H 865.47813 V 616.14688 H 84.278125 Z"
         id="path2632" />
    </clipPath>
    <clipPath
       clipPathUnits="userSpaceOnUse"
       id="clipPath2652">
      <path
         d="M 84.278125,61.746875 H 865.47813 V 616.14688 H 84.278125 Z"
         id="path2650" />
    </clipPath>
    <clipPath
       clipPathUnits="userSpaceOnUse"
       id="clipPath2670">
      <path
         d="M 84.278125,61.746875 H 865.47813 V 616.14688 H 84.278125 Z"
         id="path2668" />
    </clipPath>
    <clipPath
       clipPathUnits="userSpaceOnUse"
       id="clipPath2688">
      <path
         d="M 84.278125,61.746875 H 865.47813 V 616.14688 H 84.278125 Z"
         id="path2686" />
    </clipPath>
    <clipPath
       clipPathUnits="userSpaceOnUse"
       id="clipPath2714">
      <path
         d="M -1021,-463 H 1794 V 1233 H -1021 Z"
         id="path2712" />
    </clipPath>
    <clipPath
       clipPathUnits="userSpaceOnUse"
       id="clipPath2726">
      <path
         d="M -1021,-463 H 1794 V 1233 H -1021 Z"
         id="path2724" />
    </clipPath>
  </defs>
  <sodipodi:namedview
     id="namedview2304"
     pagecolor="#ffffff"
     bordercolor="#000000"
     borderopacity="0.25"
     inkscape:showpageshadow="2"
     inkscape:pageopacity="0.0"
     inkscape:pagecheckerboard="0"
     inkscape:deskcolor="#d1d1d1"
     showgrid="false"
     inkscape:zoom="0.97818732"
     inkscape:cx="485.59206"
     inkscape:cy="416.58687"
     inkscape:window-width="2560"
     inkscape:window-height="963"
     inkscape:window-x="0"
     inkscape:window-y="25"
     inkscape:window-maximized="1"
     inkscape:current-layer="g2310">
    <inkscape:page
       x="0"
       y="0"
       id="page2308"
       width="1163.5708"
       height="831.12915" />
  </sodipodi:namedview>
  <g
     id="g2310"
     inkscape:groupmode="layer"
     inkscape:label="Page 1"
     transform="matrix(1.3333333,0,0,-1.3333333,0,831.12917)">
    <path
       d="M 0,0 H 872.67813 V 623.34687 H 0 Z"
       style="fill:#ffffff;fill-opacity:1;fill-rule:nonzero;stroke:none"
       id="path2312" />
    <path
       d="M 84.278125,61.746875 H 865.47812 V 616.14688 H 84.278125 Z"
       style="fill:#ffffff;fill-opacity:1;fill-rule:nonzero;stroke:none"
       id="path2314" />
    <g
       id="g2316">
      <g
         id="g2318"
         clip-path="url(#clipPath2322)">
        <path
           d="m 829.96903,76.946875 c 2.65203,0 5.1958,1.053663 7.07107,2.928932 1.87527,1.875269 2.92893,4.419037 2.92893,7.071068 0,2.652031 -1.05366,5.195799 -2.92893,7.071068 -1.87527,1.875269 -4.41904,2.928932 -7.07107,2.928932 -2.65203,0 -5.19579,-1.053663 -7.07106,-2.928932 -1.87527,-1.875269 -2.92894,-4.419037 -2.92894,-7.071068 0,-2.652031 1.05367,-5.195799 2.92894,-7.071068 1.87527,-1.875269 4.41903,-2.928932 7.07106,-2.928932 z"
           style="fill:#febf5a;fill-opacity:1;fill-rule:nonzero;stroke:#febf5a;stroke-width:1;stroke-linecap:butt;stroke-linejoin:round;stroke-miterlimit:10;stroke-dasharray:none;stroke-opacity:1"
           id="path2324" />
      </g>
    </g>
    <g
       id="g2326">
      <g
         id="g2328"
         clip-path="url(#clipPath2332)">
        <path
           d="m 595.84316,328.94687 c 2.65203,0 5.1958,1.05367 7.07107,2.92894 1.87527,1.87527 2.92893,4.41903 2.92893,7.07106 0,2.65204 -1.05366,5.1958 -2.92893,7.07107 -1.87527,1.87527 -4.41904,2.92893 -7.07107,2.92893 -2.65203,0 -5.1958,-1.05366 -7.07107,-2.92893 -1.87527,-1.87527 -2.92893,-4.41903 -2.92893,-7.07107 0,-2.65203 1.05366,-5.19579 2.92893,-7.07106 1.87527,-1.87527 4.41904,-2.92894 7.07107,-2.92894 z"
           style="fill:#f43d25;fill-opacity:1;fill-rule:nonzero;stroke:#f43d25;stroke-width:1;stroke-linecap:butt;stroke-linejoin:round;stroke-miterlimit:10;stroke-dasharray:none;stroke-opacity:1"
           id="path2334" />
      </g>
    </g>
    <g
       id="g2336">
      <g
         id="g2338"
         clip-path="url(#clipPath2342)">
        <path
           d="m 366.92008,244.94687 c 2.65203,0 5.1958,1.05367 7.07107,2.92894 1.87527,1.87527 2.92893,4.41903 2.92893,7.07106 0,2.65204 -1.05366,5.1958 -2.92893,7.07107 -1.87527,1.87527 -4.41904,2.92893 -7.07107,2.92893 -2.65203,0 -5.1958,-1.05366 -7.07107,-2.92893 -1.87526,-1.87527 -2.92893,-4.41903 -2.92893,-7.07107 0,-2.65203 1.05367,-5.19579 2.92893,-7.07106 1.87527,-1.87527 4.41904,-2.92894 7.07107,-2.92894 z"
           style="fill:#800026;fill-opacity:1;fill-rule:nonzero;stroke:#800026;stroke-width:1;stroke-linecap:butt;stroke-linejoin:round;stroke-miterlimit:10;stroke-dasharray:none;stroke-opacity:1"
           id="path2344" />
      </g>
    </g>
    <g
       id="g2346">
      <g
         id="g2348"
         clip-path="url(#clipPath2352)">
        <path
           d="m 822.16484,180.94687 -10,-20 h 20 z"
           style="fill:#febf5a;fill-opacity:1;fill-rule:nonzero;stroke:#febf5a;stroke-width:1;stroke-linecap:butt;stroke-linejoin:round;stroke-miterlimit:10;stroke-dasharray:none;stroke-opacity:1"
           id="path2354" />
      </g>
    </g>
    <g
       id="g2356">
      <g
         id="g2358"
         clip-path="url(#clipPath2362)">
        <path
           d="m 434.55645,600.94687 -10,-20 h 20 z"
           style="fill:#f43d25;fill-opacity:1;fill-rule:nonzero;stroke:#f43d25;stroke-width:1;stroke-linecap:butt;stroke-linejoin:round;stroke-miterlimit:10;stroke-dasharray:none;stroke-opacity:1"
           id="path2364" />
      </g>
    </g>
    <g
       id="g2366">
      <g
         id="g2368"
         clip-path="url(#clipPath2372)">
        <path
           d="m 262.86414,432.94687 -10,-20 h 20 z"
           style="fill:#800026;fill-opacity:1;fill-rule:nonzero;stroke:#800026;stroke-width:1;stroke-linecap:butt;stroke-linejoin:round;stroke-miterlimit:10;stroke-dasharray:none;stroke-opacity:1"
           id="path2374" />
      </g>
    </g>
    <g
       id="g2376">
      <g
         id="g2378"
         clip-path="url(#clipPath2382)">
        <path
           d="m 749.73127,202.94687 h 20 v 20 h -20 z"
           style="fill:#febf5a;fill-opacity:1;fill-rule:nonzero;stroke:#febf5a;stroke-width:1;stroke-linecap:butt;stroke-linejoin:round;stroke-miterlimit:10;stroke-dasharray:none;stroke-opacity:1"
           id="path2384" />
      </g>
    </g>
    <g
       id="g2386">
      <g
         id="g2388"
         clip-path="url(#clipPath2392)">
        <path
           d="m 343.91309,118.94688 h 20 v 19.99999 h -20 z"
           style="fill:#f43d25;fill-opacity:1;fill-rule:nonzero;stroke:#f43d25;stroke-width:1;stroke-linecap:butt;stroke-linejoin:round;stroke-miterlimit:10;stroke-dasharray:none;stroke-opacity:1"
           id="path2394" />
      </g>
    </g>
    <g
       id="g2396">
      <g
         id="g2398"
         clip-path="url(#clipPath2402)">
        <path
           d="m 172.22078,370.94687 h 20 v 20 h -20 z"
           style="fill:#800026;fill-opacity:1;fill-rule:nonzero;stroke:#800026;stroke-width:1;stroke-linecap:butt;stroke-linejoin:round;stroke-miterlimit:10;stroke-dasharray:none;stroke-opacity:1"
           id="path2404" />
      </g>
    </g>
    <g
       id="g2406">
      <g
         id="g2408"
         clip-path="url(#clipPath2412)">
        <path
           d="m 606.24875,96.946875 -9.51056,-6.90983 3.63271,-11.18034 h 11.75571 l 3.63271,11.18034 z"
           style="fill:#febf5a;fill-opacity:1;fill-rule:nonzero;stroke:#febf5a;stroke-width:1;stroke-linecap:butt;stroke-linejoin:round;stroke-miterlimit:10;stroke-dasharray:none;stroke-opacity:1"
           id="path2414" />
      </g>
    </g>
    <g
       id="g2416">
      <g
         id="g2418"
         clip-path="url(#clipPath2422)">
        <path
           d="m 314.89211,264.94687 -9.51056,-6.90983 3.63271,-11.18034 h 11.7557 l 3.63272,11.18034 z"
           style="fill:#f43d25;fill-opacity:1;fill-rule:nonzero;stroke:#f43d25;stroke-width:1;stroke-linecap:butt;stroke-linejoin:round;stroke-miterlimit:10;stroke-dasharray:none;stroke-opacity:1"
           id="path2424" />
      </g>
    </g>
    <g
       id="g2426">
      <g
         id="g2428"
         clip-path="url(#clipPath2432)">
        <path
           d="m 119.78722,432.94687 -9.51057,-6.90983 3.63271,-11.18034 h 11.75571 l 3.63271,11.18034 z"
           style="fill:#800026;fill-opacity:1;fill-rule:nonzero;stroke:#800026;stroke-width:1;stroke-linecap:butt;stroke-linejoin:round;stroke-miterlimit:10;stroke-dasharray:none;stroke-opacity:1"
           id="path2434" />
      </g>
    </g>
    <g
       id="g2436">
      <g
         id="g2438"
         clip-path="url(#clipPath2442)">
        <path
           d="M 161.40959,61.746875 V 616.14688"
           style="fill:none;stroke:#b0b0b0;stroke-width:0.8;stroke-linecap:butt;stroke-linejoin:round;stroke-miterlimit:10;stroke-dasharray:2.96, 1.28;stroke-dashoffset:0;stroke-opacity:0.7"
           id="path2444" />
      </g>
    </g>
    <g
       id="g2446">
      <path
         d="m 161.40959,61.746875 v -3.5"
         style="fill:#000000;fill-opacity:1;fill-rule:nonzero;stroke:#000000;stroke-width:0.8;stroke-linecap:butt;stroke-linejoin:round;stroke-miterlimit:10;stroke-dasharray:none;stroke-opacity:1"
         id="path2448" />
      <text
         xml:space="preserve"
         transform="matrix(1,0,0,-1,143.26897,40.309375)"
         style="font-variant:normal;font-weight:normal;font-size:19px;font-family:DejaVuSans;-inkscape-font-specification:DejaVuSans;writing-mode:lr-tb;fill:#000000;fill-opacity:1;fill-rule:nonzero;stroke:none"
         id="text2452"><tspan
           x="0 12.084 24.167999"
           y="0"
           sodipodi:role="line"
           id="tspan2450">100</tspan></text>
    </g>
    <g
       id="g2454">
      <g
         id="g2456"
         clip-path="url(#clipPath2460)">
        <path
           d="M 291.47952,61.746875 V 616.14688"
           style="fill:none;stroke:#b0b0b0;stroke-width:0.8;stroke-linecap:butt;stroke-linejoin:round;stroke-miterlimit:10;stroke-dasharray:2.96, 1.28;stroke-dashoffset:0;stroke-opacity:0.7"
           id="path2462" />
      </g>
    </g>
    <g
       id="g2464">
      <path
         d="m 291.47952,61.746875 v -3.5"
         style="fill:#000000;fill-opacity:1;fill-rule:nonzero;stroke:#000000;stroke-width:0.8;stroke-linecap:butt;stroke-linejoin:round;stroke-miterlimit:10;stroke-dasharray:none;stroke-opacity:1"
         id="path2466" />
      <text
         xml:space="preserve"
         transform="matrix(1,0,0,-1,273.3389,40.309375)"
         style="font-variant:normal;font-weight:normal;font-size:19px;font-family:DejaVuSans;-inkscape-font-specification:DejaVuSans;writing-mode:lr-tb;fill:#000000;fill-opacity:1;fill-rule:nonzero;stroke:none"
         id="text2470"><tspan
           x="0 12.084 24.167999"
           y="0"
           sodipodi:role="line"
           id="tspan2468">150</tspan></text>
    </g>
    <g
       id="g2472">
      <g
         id="g2474"
         clip-path="url(#clipPath2478)">
        <path
           d="M 421.54945,61.746875 V 616.14688"
           style="fill:none;stroke:#b0b0b0;stroke-width:0.8;stroke-linecap:butt;stroke-linejoin:round;stroke-miterlimit:10;stroke-dasharray:2.96, 1.28;stroke-dashoffset:0;stroke-opacity:0.7"
           id="path2480" />
      </g>
    </g>
    <g
       id="g2482">
      <path
         d="m 421.54945,61.746875 v -3.5"
         style="fill:#000000;fill-opacity:1;fill-rule:nonzero;stroke:#000000;stroke-width:0.8;stroke-linecap:butt;stroke-linejoin:round;stroke-miterlimit:10;stroke-dasharray:none;stroke-opacity:1"
         id="path2484" />
      <text
         xml:space="preserve"
         transform="matrix(1,0,0,-1,403.40883,40.309375)"
         style="font-variant:normal;font-weight:normal;font-size:19px;font-family:DejaVuSans;-inkscape-font-specification:DejaVuSans;writing-mode:lr-tb;fill:#000000;fill-opacity:1;fill-rule:nonzero;stroke:none"
         id="text2488"><tspan
           x="0 12.084 24.167999"
           y="0"
           sodipodi:role="line"
           id="tspan2486">200</tspan></text>
    </g>
    <g
       id="g2490">
      <g
         id="g2492"
         clip-path="url(#clipPath2496)">
        <path
           d="M 551.61938,61.746875 V 616.14688"
           style="fill:none;stroke:#b0b0b0;stroke-width:0.8;stroke-linecap:butt;stroke-linejoin:round;stroke-miterlimit:10;stroke-dasharray:2.96, 1.28;stroke-dashoffset:0;stroke-opacity:0.7"
           id="path2498" />
      </g>
    </g>
    <g
       id="g2500">
      <path
         d="m 551.61938,61.746875 v -3.5"
         style="fill:#000000;fill-opacity:1;fill-rule:nonzero;stroke:#000000;stroke-width:0.8;stroke-linecap:butt;stroke-linejoin:round;stroke-miterlimit:10;stroke-dasharray:none;stroke-opacity:1"
         id="path2502" />
      <text
         xml:space="preserve"
         transform="matrix(1,0,0,-1,533.47876,40.309375)"
         style="font-variant:normal;font-weight:normal;font-size:19px;font-family:DejaVuSans;-inkscape-font-specification:DejaVuSans;writing-mode:lr-tb;fill:#000000;fill-opacity:1;fill-rule:nonzero;stroke:none"
         id="text2506"><tspan
           x="0 12.084 24.167999"
           y="0"
           sodipodi:role="line"
           id="tspan2504">250</tspan></text>
    </g>
    <g
       id="g2508">
      <g
         id="g2510"
         clip-path="url(#clipPath2514)">
        <path
           d="M 681.68931,61.746875 V 616.14688"
           style="fill:none;stroke:#b0b0b0;stroke-width:0.8;stroke-linecap:butt;stroke-linejoin:round;stroke-miterlimit:10;stroke-dasharray:2.96, 1.28;stroke-dashoffset:0;stroke-opacity:0.7"
           id="path2516" />
      </g>
    </g>
    <g
       id="g2518">
      <path
         d="m 681.68931,61.746875 v -3.5"
         style="fill:#000000;fill-opacity:1;fill-rule:nonzero;stroke:#000000;stroke-width:0.8;stroke-linecap:butt;stroke-linejoin:round;stroke-miterlimit:10;stroke-dasharray:none;stroke-opacity:1"
         id="path2520" />
      <text
         xml:space="preserve"
         transform="matrix(1,0,0,-1,663.54869,40.309375)"
         style="font-variant:normal;font-weight:normal;font-size:19px;font-family:DejaVuSans;-inkscape-font-specification:DejaVuSans;writing-mode:lr-tb;fill:#000000;fill-opacity:1;fill-rule:nonzero;stroke:none"
         id="text2524"><tspan
           x="0 12.084 24.167999"
           y="0"
           sodipodi:role="line"
           id="tspan2522">300</tspan></text>
    </g>
    <g
       id="g2526">
      <g
         id="g2528"
         clip-path="url(#clipPath2532)">
        <path
           d="M 811.75924,61.746875 V 616.14688"
           style="fill:none;stroke:#b0b0b0;stroke-width:0.8;stroke-linecap:butt;stroke-linejoin:round;stroke-miterlimit:10;stroke-dasharray:2.96, 1.28;stroke-dashoffset:0;stroke-opacity:0.7"
           id="path2534" />
      </g>
    </g>
    <g
       id="g2536">
      <path
         d="m 811.75924,61.746875 v -3.5"
         style="fill:#000000;fill-opacity:1;fill-rule:nonzero;stroke:#000000;stroke-width:0.8;stroke-linecap:butt;stroke-linejoin:round;stroke-miterlimit:10;stroke-dasharray:none;stroke-opacity:1"
         id="path2538" />
      <text
         xml:space="preserve"
         transform="matrix(1,0,0,-1,793.61862,40.309375)"
         style="font-variant:normal;font-weight:normal;font-size:19px;font-family:DejaVuSans;-inkscape-font-specification:DejaVuSans;writing-mode:lr-tb;fill:#000000;fill-opacity:1;fill-rule:nonzero;stroke:none"
         id="text2542"><tspan
           x="0 12.084 24.167999"
           y="0"
           sodipodi:role="line"
           id="tspan2540">350</tspan></text>
      <g
         id="g2544"
         transform="translate(410.87812,12.60625)">
        <text
           xml:space="preserve"
           transform="matrix(1,0,0,-1,40.180664,0.703125)"
           style="font-variant:normal;font-weight:normal;font-size:26px;font-family:DejaVuSans;-inkscape-font-specification:DejaVuSans;writing-mode:lr-tb;fill:#000000;fill-opacity:1;fill-rule:nonzero;stroke:none"
           id="text2548"><tspan
             x="0 14.955078 30.633789 47.137695"
             y="0"
             sodipodi:role="line"
             id="tspan2546">FPS </tspan></text>
        <g
           id="g2550"
           transform="matrix(0.026,0,0,0.026,5.0654297,0.703125)">
          <g
             id="g2552">
            <g
               id="g2554"
               clip-path="url(#clipPath2558)">
              <path
                 d="M 789,335 V 292 L 597,100 539,158 652,272 H 57 v 83 h 595 l -113,114 58,58 192,-192"
                 style="fill:#000000;fill-opacity:1;fill-rule:nonzero;stroke:none"
                 id="path2560" />
            </g>
          </g>
        </g>
        <g
           id="g2562"
           transform="matrix(0.026,0,0,0.026,100.64844,0.703125)">
          <g
             id="g2564">
            <g
               id="g2566"
               clip-path="url(#clipPath2570)">
              <path
                 d="M 789,335 V 292 L 597,100 539,158 652,272 H 57 v 83 h 595 l -113,114 58,58 192,-192"
                 style="fill:#000000;fill-opacity:1;fill-rule:nonzero;stroke:none"
                 id="path2572" />
            </g>
          </g>
        </g>
      </g>
    </g>
    <g
       id="g2574">
      <g
         id="g2576"
         clip-path="url(#clipPath2580)">
        <path
           d="M 84.278125,590.94687 H 865.47812"
           style="fill:none;stroke:#b0b0b0;stroke-width:0.8;stroke-linecap:butt;stroke-linejoin:round;stroke-miterlimit:10;stroke-dasharray:2.96, 1.28;stroke-dashoffset:0;stroke-opacity:0.7"
           id="path2582" />
      </g>
    </g>
    <g
       id="g2584">
      <path
         d="m 84.278125,590.94687 h -3.5"
         style="fill:#000000;fill-opacity:1;fill-rule:nonzero;stroke:#000000;stroke-width:0.8;stroke-linecap:butt;stroke-linejoin:round;stroke-miterlimit:10;stroke-dasharray:none;stroke-opacity:1"
         id="path2586" />
      <text
         xml:space="preserve"
         transform="matrix(1,0,0,-1,37.2,584.11094)"
         style="font-variant:normal;font-weight:normal;font-size:18px;font-family:DejaVuSans;-inkscape-font-specification:DejaVuSans;writing-mode:lr-tb;fill:#000000;fill-opacity:1;fill-rule:nonzero;stroke:none"
         id="text2590"><tspan
           x="0 11.448 17.172001 28.620001"
           y="0"
           sodipodi:role="line"
           id="tspan2588">0.58</tspan></text>
    </g>
    <g
       id="g2592">
      <g
         id="g2594"
         clip-path="url(#clipPath2598)">
        <path
           d="M 84.278125,506.94687 H 865.47812"
           style="fill:none;stroke:#b0b0b0;stroke-width:0.8;stroke-linecap:butt;stroke-linejoin:round;stroke-miterlimit:10;stroke-dasharray:2.96, 1.28;stroke-dashoffset:0;stroke-opacity:0.7"
           id="path2600" />
      </g>
    </g>
    <g
       id="g2602">
      <path
         d="m 84.278125,506.94687 h -3.5"
         style="fill:#000000;fill-opacity:1;fill-rule:nonzero;stroke:#000000;stroke-width:0.8;stroke-linecap:butt;stroke-linejoin:round;stroke-miterlimit:10;stroke-dasharray:none;stroke-opacity:1"
         id="path2604" />
      <text
         xml:space="preserve"
         transform="matrix(1,0,0,-1,37.2,500.11094)"
         style="font-variant:normal;font-weight:normal;font-size:18px;font-family:DejaVuSans;-inkscape-font-specification:DejaVuSans;writing-mode:lr-tb;fill:#000000;fill-opacity:1;fill-rule:nonzero;stroke:none"
         id="text2608"><tspan
           x="0 11.448 17.172001 28.620001"
           y="0"
           sodipodi:role="line"
           id="tspan2606">0.60</tspan></text>
    </g>
    <g
       id="g2610">
      <g
         id="g2612"
         clip-path="url(#clipPath2616)">
        <path
           d="M 84.278125,422.94687 H 865.47812"
           style="fill:none;stroke:#b0b0b0;stroke-width:0.8;stroke-linecap:butt;stroke-linejoin:round;stroke-miterlimit:10;stroke-dasharray:2.96, 1.28;stroke-dashoffset:0;stroke-opacity:0.7"
           id="path2618" />
      </g>
    </g>
    <g
       id="g2620">
      <path
         d="m 84.278125,422.94687 h -3.5"
         style="fill:#000000;fill-opacity:1;fill-rule:nonzero;stroke:#000000;stroke-width:0.8;stroke-linecap:butt;stroke-linejoin:round;stroke-miterlimit:10;stroke-dasharray:none;stroke-opacity:1"
         id="path2622" />
      <text
         xml:space="preserve"
         transform="matrix(1,0,0,-1,37.2,416.11094)"
         style="font-variant:normal;font-weight:normal;font-size:18px;font-family:DejaVuSans;-inkscape-font-specification:DejaVuSans;writing-mode:lr-tb;fill:#000000;fill-opacity:1;fill-rule:nonzero;stroke:none"
         id="text2626"><tspan
           x="0 11.448 17.172001 28.620001"
           y="0"
           sodipodi:role="line"
           id="tspan2624">0.62</tspan></text>
    </g>
    <g
       id="g2628">
      <g
         id="g2630"
         clip-path="url(#clipPath2634)">
        <path
           d="M 84.278125,338.94687 H 865.47812"
           style="fill:none;stroke:#b0b0b0;stroke-width:0.8;stroke-linecap:butt;stroke-linejoin:round;stroke-miterlimit:10;stroke-dasharray:2.96, 1.28;stroke-dashoffset:0;stroke-opacity:0.7"
           id="path2636" />
      </g>
    </g>
    <g
       id="g2638">
      <path
         d="m 84.278125,338.94687 h -3.5"
         style="fill:#000000;fill-opacity:1;fill-rule:nonzero;stroke:#000000;stroke-width:0.8;stroke-linecap:butt;stroke-linejoin:round;stroke-miterlimit:10;stroke-dasharray:none;stroke-opacity:1"
         id="path2640" />
      <text
         xml:space="preserve"
         transform="matrix(1,0,0,-1,37.2,332.11094)"
         style="font-variant:normal;font-weight:normal;font-size:18px;font-family:DejaVuSans;-inkscape-font-specification:DejaVuSans;writing-mode:lr-tb;fill:#000000;fill-opacity:1;fill-rule:nonzero;stroke:none"
         id="text2644"><tspan
           x="0 11.448 17.172001 28.620001"
           y="0"
           sodipodi:role="line"
           id="tspan2642">0.64</tspan></text>
    </g>
    <g
       id="g2646">
      <g
         id="g2648"
         clip-path="url(#clipPath2652)">
        <path
           d="M 84.278125,254.94687 H 865.47812"
           style="fill:none;stroke:#b0b0b0;stroke-width:0.8;stroke-linecap:butt;stroke-linejoin:round;stroke-miterlimit:10;stroke-dasharray:2.96, 1.28;stroke-dashoffset:0;stroke-opacity:0.7"
           id="path2654" />
      </g>
    </g>
    <g
       id="g2656">
      <path
         d="m 84.278125,254.94687 h -3.5"
         style="fill:#000000;fill-opacity:1;fill-rule:nonzero;stroke:#000000;stroke-width:0.8;stroke-linecap:butt;stroke-linejoin:round;stroke-miterlimit:10;stroke-dasharray:none;stroke-opacity:1"
         id="path2658" />
      <text
         xml:space="preserve"
         transform="matrix(1,0,0,-1,37.2,248.11094)"
         style="font-variant:normal;font-weight:normal;font-size:18px;font-family:DejaVuSans;-inkscape-font-specification:DejaVuSans;writing-mode:lr-tb;fill:#000000;fill-opacity:1;fill-rule:nonzero;stroke:none"
         id="text2662"><tspan
           x="0 11.448 17.172001 28.620001"
           y="0"
           sodipodi:role="line"
           id="tspan2660">0.66</tspan></text>
    </g>
    <g
       id="g2664">
      <g
         id="g2666"
         clip-path="url(#clipPath2670)">
        <path
           d="M 84.278125,170.94687 H 865.47812"
           style="fill:none;stroke:#b0b0b0;stroke-width:0.8;stroke-linecap:butt;stroke-linejoin:round;stroke-miterlimit:10;stroke-dasharray:2.96, 1.28;stroke-dashoffset:0;stroke-opacity:0.7"
           id="path2672" />
      </g>
    </g>
    <g
       id="g2674">
      <path
         d="m 84.278125,170.94687 h -3.5"
         style="fill:#000000;fill-opacity:1;fill-rule:nonzero;stroke:#000000;stroke-width:0.8;stroke-linecap:butt;stroke-linejoin:round;stroke-miterlimit:10;stroke-dasharray:none;stroke-opacity:1"
         id="path2676" />
      <text
         xml:space="preserve"
         transform="matrix(1,0,0,-1,37.2,164.11094)"
         style="font-variant:normal;font-weight:normal;font-size:18px;font-family:DejaVuSans;-inkscape-font-specification:DejaVuSans;writing-mode:lr-tb;fill:#000000;fill-opacity:1;fill-rule:nonzero;stroke:none"
         id="text2680"><tspan
           x="0 11.448 17.172001 28.620001"
           y="0"
           sodipodi:role="line"
           id="tspan2678">0.68</tspan></text>
    </g>
    <g
       id="g2682">
      <g
         id="g2684"
         clip-path="url(#clipPath2688)">
        <path
           d="M 84.278125,86.946875 H 865.47812"
           style="fill:none;stroke:#b0b0b0;stroke-width:0.8;stroke-linecap:butt;stroke-linejoin:round;stroke-miterlimit:10;stroke-dasharray:2.96, 1.28;stroke-dashoffset:0;stroke-opacity:0.7"
           id="path2690" />
      </g>
    </g>
    <g
       id="g2692">
      <path
         d="m 84.278125,86.946875 h -3.5"
         style="fill:#000000;fill-opacity:1;fill-rule:nonzero;stroke:#000000;stroke-width:0.8;stroke-linecap:butt;stroke-linejoin:round;stroke-miterlimit:10;stroke-dasharray:none;stroke-opacity:1"
         id="path2694" />
      <text
         xml:space="preserve"
         transform="matrix(1,0,0,-1,37.2,80.110937)"
         style="font-variant:normal;font-weight:normal;font-size:18px;font-family:DejaVuSans;-inkscape-font-specification:DejaVuSans;writing-mode:lr-tb;fill:#000000;fill-opacity:1;fill-rule:nonzero;stroke:none"
         id="text2698"><tspan
           x="0 11.448 17.172001 28.620001"
           y="0"
           sodipodi:role="line"
           id="tspan2696">0.70</tspan></text>
      <g
         id="g2700"
         transform="rotate(90,-97.123437,124.32344)">
        <text
           xml:space="preserve"
           transform="matrix(1,0,0,-1,40.180664,0.25)"
           style="font-variant:normal;font-weight:normal;font-size:26px;font-family:DejaVuSans;-inkscape-font-specification:DejaVuSans;writing-mode:lr-tb;fill:#000000;fill-opacity:1;fill-rule:nonzero;stroke:none"
           id="text2704"><tspan
             x="0 16.503906 33.007812 49.003906 65 81.503906 89.768555 106.19629 116.88574 127.5752 143.48242 154.17188"
             y="0"
             sodipodi:role="line"
             id="tspan2702">Speed Error </tspan></text>
        <g
           id="g2706"
           transform="matrix(0.026,0,0,0.026,5.0654297,0.25)">
          <g
             id="g2708">
            <g
               id="g2710"
               clip-path="url(#clipPath2714)">
              <path
                 d="m 49,292 v 43 L 241,527 299,469 186,355 H 781 V 272 H 186 L 299,158 241,100 49,292"
                 style="fill:#000000;fill-opacity:1;fill-rule:nonzero;stroke:none"
                 id="path2716" />
            </g>
          </g>
        </g>
        <g
           id="g2718"
           transform="matrix(0.026,0,0,0.026,207.68262,0.25)">
          <g
             id="g2720">
            <g
               id="g2722"
               clip-path="url(#clipPath2726)">
              <path
                 d="m 49,292 v 43 L 241,527 299,469 186,355 H 781 V 272 H 186 L 299,158 241,100 49,292"
                 style="fill:#000000;fill-opacity:1;fill-rule:nonzero;stroke:none"
                 id="path2728" />
            </g>
          </g>
        </g>
      </g>
      <path
         d="M 84.278125,61.746875 V 616.14688"
         style="fill:none;stroke:#000000;stroke-width:0.8;stroke-linecap:square;stroke-linejoin:miter;stroke-miterlimit:10;stroke-dasharray:none;stroke-opacity:1"
         id="path2730" />
      <path
         d="M 865.47812,61.746875 V 616.14688"
         style="fill:none;stroke:#000000;stroke-width:0.8;stroke-linecap:square;stroke-linejoin:miter;stroke-miterlimit:10;stroke-dasharray:none;stroke-opacity:1"
         id="path2732" />
      <path
         d="M 84.278125,61.746875 H 865.47812"
         style="fill:none;stroke:#000000;stroke-width:0.8;stroke-linecap:square;stroke-linejoin:miter;stroke-miterlimit:10;stroke-dasharray:none;stroke-opacity:1"
         id="path2734" />
      <path
         d="M 84.278125,616.14688 H 865.47812"
         style="fill:none;stroke:#000000;stroke-width:0.8;stroke-linecap:square;stroke-linejoin:miter;stroke-miterlimit:10;stroke-dasharray:none;stroke-opacity:1"
         id="path2736" />
      <path
         d="m 645.6625,287.71875 h 207.91562 c 2.26667,0 3.4,1.13333 3.4,3.4 v 314.62813 c 0,2.26666 -1.13333,3.4 -3.4,3.4 H 645.6625 c -2.26667,0 -3.4,-1.13334 -3.4,-3.4 V 291.11875 c 0,-2.26667 1.13333,-3.4 3.4,-3.4 z"
         style="fill:#ffffff;fill-opacity:0.8;fill-rule:nonzero;stroke:#cccccc;stroke-width:1;stroke-linecap:butt;stroke-linejoin:miter;stroke-miterlimit:10;stroke-dasharray:none;stroke-opacity:0.8"
         id="path2738"
         sodipodi:nodetypes="sssssssss" />
      <path
         d="m 666.0625,575.73125 c 2.65203,0 5.1958,1.05366 7.07107,2.92893 1.87527,1.87527 2.92893,4.41904 2.92893,7.07107 0,2.65203 -1.05366,5.1958 -2.92893,7.07107 -1.87527,1.87527 -4.41904,2.92893 -7.07107,2.92893 -2.65203,0 -5.1958,-1.05366 -7.07107,-2.92893 -1.87527,-1.87527 -2.92893,-4.41904 -2.92893,-7.07107 0,-2.65203 1.05366,-5.1958 2.92893,-7.07107 1.87527,-1.87527 4.41904,-2.92893 7.07107,-2.92893 z"
         style="fill:#febf5a;fill-opacity:1;fill-rule:nonzero;stroke:#febf5a;stroke-width:1;stroke-linecap:butt;stroke-linejoin:round;stroke-miterlimit:10;stroke-dasharray:none;stroke-opacity:1"
         id="path2748" />
      <text
         xml:space="preserve"
         transform="scale(1,-1)"
         style="font-variant:normal;font-weight:normal;font-size:17px;font-family:DejaVuSansMono;-inkscape-font-specification:DejaVuSansMono;writing-mode:lr-tb;fill:#000000;fill-opacity:1;fill-rule:nonzero;stroke:none"
         id="text2752"
         x="696.66248"
         y="-581.26874"><tspan
           x="696.66248 706.89648 717.13049 727.3645 737.59851 778.53448 788.76849 799.0025 809.23651 819.47052 829.70453 839.93848"
           y="-581.26874"
           sodipodi:role="line"
           id="tspan2750">nano 480x270</tspan></text>
      <path
         d="m 666.0625,550.7 c 2.65203,0 5.1958,1.05366 7.07107,2.92893 1.87527,1.87527 2.92893,4.41904 2.92893,7.07107 0,2.65203 -1.05366,5.1958 -2.92893,7.07107 -1.87527,1.87527 -4.41904,2.92893 -7.07107,2.92893 -2.65203,0 -5.1958,-1.05366 -7.07107,-2.92893 -1.87527,-1.87527 -2.92893,-4.41904 -2.92893,-7.07107 0,-2.65203 1.05366,-5.1958 2.92893,-7.07107 1.87527,-1.87527 4.41904,-2.92893 7.07107,-2.92893 z"
         style="fill:#f43d25;fill-opacity:1;fill-rule:nonzero;stroke:#f43d25;stroke-width:1;stroke-linecap:butt;stroke-linejoin:round;stroke-miterlimit:10;stroke-dasharray:none;stroke-opacity:1"
         id="path2754" />
      <text
         xml:space="preserve"
         transform="scale(1,-1)"
         style="font-variant:normal;font-weight:normal;font-size:17px;font-family:DejaVuSansMono;-inkscape-font-specification:DejaVuSansMono;writing-mode:lr-tb;fill:#000000;fill-opacity:1;fill-rule:nonzero;stroke:none"
         id="text2758"
         x="696.66248"
         y="-556.23749"><tspan
           x="696.66248 706.89648 717.13049 727.3645 737.59851 778.53448 788.76849 799.0025 809.23651 819.47052 829.70453 839.93848"
           y="-556.23749"
           sodipodi:role="line"
           id="tspan2756">nano 640x360</tspan></text>
      <path
         d="m 666.0625,525.66875 c 2.65203,0 5.1958,1.05366 7.07107,2.92893 1.87527,1.87527 2.92893,4.41904 2.92893,7.07107 0,2.65203 -1.05366,5.1958 -2.92893,7.07107 -1.87527,1.87527 -4.41904,2.92893 -7.07107,2.92893 -2.65203,0 -5.1958,-1.05366 -7.07107,-2.92893 -1.87527,-1.87527 -2.92893,-4.41904 -2.92893,-7.07107 0,-2.65203 1.05366,-5.1958 2.92893,-7.07107 1.87527,-1.87527 4.41904,-2.92893 7.07107,-2.92893 z"
         style="fill:#800026;fill-opacity:1;fill-rule:nonzero;stroke:#800026;stroke-width:1;stroke-linecap:butt;stroke-linejoin:round;stroke-miterlimit:10;stroke-dasharray:none;stroke-opacity:1"
         id="path2760" />
      <text
         xml:space="preserve"
         transform="scale(1,-1)"
         style="font-variant:normal;font-weight:normal;font-size:17px;font-family:DejaVuSansMono;-inkscape-font-specification:DejaVuSansMono;writing-mode:lr-tb;fill:#000000;fill-opacity:1;fill-rule:nonzero;stroke:none"
         id="text2764"
         x="696.66248"
         y="-531.20624"><tspan
           x="696.66248 706.89648 717.13049 727.3645 737.59851 778.53448 788.76849 799.0025 809.23651 819.47052 829.70453 839.93848"
           y="-531.20624"
           sodipodi:role="line"
           id="tspan2762">nano 960x540</tspan></text>
      <path
         d="m 666.0625,520.6375 -10,-20 h 20 z"
         style="fill:#febf5a;fill-opacity:1;fill-rule:nonzero;stroke:#febf5a;stroke-width:1;stroke-linecap:butt;stroke-linejoin:round;stroke-miterlimit:10;stroke-dasharray:none;stroke-opacity:1"
         id="path2766" />
      <text
         xml:space="preserve"
         transform="scale(1,-1)"
         style="font-variant:normal;font-weight:normal;font-size:17px;font-family:DejaVuSansMono;-inkscape-font-specification:DejaVuSansMono;writing-mode:lr-tb;fill:#000000;fill-opacity:1;fill-rule:nonzero;stroke:none"
         id="text2770"
         x="696.66248"
         y="-506.17499"><tspan
           x="696.66248 706.89648 717.13049 727.3645 737.59851 747.83252 778.53448 788.76849 799.0025 809.23651 819.47052 829.70453 839.93848"
           y="-506.17499"
           sodipodi:role="line"
           id="tspan2768">small 480x270</tspan></text>
      <path
         d="m 666.0625,495.60625 -10,-20 h 20 z"
         style="fill:#f43d25;fill-opacity:1;fill-rule:nonzero;stroke:#f43d25;stroke-width:1;stroke-linecap:butt;stroke-linejoin:round;stroke-miterlimit:10;stroke-dasharray:none;stroke-opacity:1"
         id="path2772" />
      <text
         xml:space="preserve"
         transform="scale(1,-1)"
         style="font-variant:normal;font-weight:normal;font-size:17px;font-family:DejaVuSansMono;-inkscape-font-specification:DejaVuSansMono;writing-mode:lr-tb;fill:#000000;fill-opacity:1;fill-rule:nonzero;stroke:none"
         id="text2776"
         x="696.66248"
         y="-481.14374"><tspan
           x="696.66248 706.89648 717.13049 727.3645 737.59851 747.83252 778.53448 788.76849 799.0025 809.23651 819.47052 829.70453 839.93848"
           y="-481.14374"
           sodipodi:role="line"
           id="tspan2774">small 640x360</tspan></text>
      <path
         d="m 666.0625,470.575 -10,-20 h 20 z"
         style="fill:#800026;fill-opacity:1;fill-rule:nonzero;stroke:#800026;stroke-width:1;stroke-linecap:butt;stroke-linejoin:round;stroke-miterlimit:10;stroke-dasharray:none;stroke-opacity:1"
         id="path2778" />
      <text
         xml:space="preserve"
         transform="scale(1,-1)"
         style="font-variant:normal;font-weight:normal;font-size:17px;font-family:DejaVuSansMono;-inkscape-font-specification:DejaVuSansMono;writing-mode:lr-tb;fill:#000000;fill-opacity:1;fill-rule:nonzero;stroke:none"
         id="text2782"
         x="696.66248"
         y="-456.11249"><tspan
           x="696.66248 706.89648 717.13049 727.3645 737.59851 747.83252 778.53448 788.76849 799.0025 809.23651 819.47052 829.70453 839.93848"
           y="-456.11249"
           sodipodi:role="line"
           id="tspan2780">small 960x540</tspan></text>
      <path
         d="m 656.0625,425.54375 h 20 v 20 h -20 z"
         style="fill:#febf5a;fill-opacity:1;fill-rule:nonzero;stroke:#febf5a;stroke-width:1;stroke-linecap:butt;stroke-linejoin:round;stroke-miterlimit:10;stroke-dasharray:none;stroke-opacity:1"
         id="path2784" />
      <text
         xml:space="preserve"
         transform="scale(1,-1)"
         style="font-variant:normal;font-weight:normal;font-size:17px;font-family:DejaVuSansMono;-inkscape-font-specification:DejaVuSansMono;writing-mode:lr-tb;fill:#000000;fill-opacity:1;fill-rule:nonzero;stroke:none"
         id="text2788"
         x="696.66248"
         y="-431.08124"><tspan
           x="696.66248 706.89648 717.13049 727.3645 737.59851 747.83252 758.06653 778.53448 788.76849 799.0025 809.23651 819.47052 829.70453 839.93848"
           y="-431.08124"
           sodipodi:role="line"
           id="tspan2786">medium 480x270</tspan></text>
      <path
         d="m 656.0625,400.5125 h 20 v 20 h -20 z"
         style="fill:#f43d25;fill-opacity:1;fill-rule:nonzero;stroke:#f43d25;stroke-width:1;stroke-linecap:butt;stroke-linejoin:round;stroke-miterlimit:10;stroke-dasharray:none;stroke-opacity:1"
         id="path2790" />
      <text
         xml:space="preserve"
         transform="scale(1,-1)"
         style="font-variant:normal;font-weight:normal;font-size:17px;font-family:DejaVuSansMono;-inkscape-font-specification:DejaVuSansMono;writing-mode:lr-tb;fill:#000000;fill-opacity:1;fill-rule:nonzero;stroke:none"
         id="text2794"
         x="696.66248"
         y="-406.04999"><tspan
           x="696.66248 706.89648 717.13049 727.3645 737.59851 747.83252 758.06653 778.53448 788.76849 799.0025 809.23651 819.47052 829.70453 839.93848"
           y="-406.04999"
           sodipodi:role="line"
           id="tspan2792">medium 640x360</tspan></text>
      <path
         d="m 656.0625,375.48125 h 20 v 20 h -20 z"
         style="fill:#800026;fill-opacity:1;fill-rule:nonzero;stroke:#800026;stroke-width:1;stroke-linecap:butt;stroke-linejoin:round;stroke-miterlimit:10;stroke-dasharray:none;stroke-opacity:1"
         id="path2796" />
      <text
         xml:space="preserve"
         transform="scale(1,-1)"
         style="font-variant:normal;font-weight:normal;font-size:17px;font-family:DejaVuSansMono;-inkscape-font-specification:DejaVuSansMono;writing-mode:lr-tb;fill:#000000;fill-opacity:1;fill-rule:nonzero;stroke:none"
         id="text2800"
         x="696.66248"
         y="-381.01874"><tspan
           x="696.66248 706.89648 717.13049 727.3645 737.59851 747.83252 758.06653 778.53448 788.76849 799.0025 809.23651 819.47052 829.70453 839.93848"
           y="-381.01874"
           sodipodi:role="line"
           id="tspan2798">medium 960x540</tspan></text>
      <path
         d="m 666.0625,370.45 -9.51057,-6.90983 3.63272,-11.18034 h 11.7557 l 3.63272,11.18034 z"
         style="fill:#febf5a;fill-opacity:1;fill-rule:nonzero;stroke:#febf5a;stroke-width:1;stroke-linecap:butt;stroke-linejoin:round;stroke-miterlimit:10;stroke-dasharray:none;stroke-opacity:1"
         id="path2802" />
      <text
         xml:space="preserve"
         transform="scale(1,-1)"
         style="font-variant:normal;font-weight:normal;font-size:17px;font-family:DejaVuSansMono;-inkscape-font-specification:DejaVuSansMono;writing-mode:lr-tb;fill:#000000;fill-opacity:1;fill-rule:nonzero;stroke:none"
         id="text2806"
         x="696.66248"
         y="-355.98749"><tspan
           x="696.66248 706.89648 717.13049 727.3645 737.59851 747.83252 778.53448 788.76849 799.0025 809.23651 819.47052 829.70453 839.93848"
           y="-355.98749"
           sodipodi:role="line"
           id="tspan2804">large 480x270</tspan></text>
      <path
         d="m 666.0625,345.29375 -9.51057,-6.90983 3.63272,-11.18034 h 11.7557 l 3.63272,11.18034 z"
         style="fill:#f43d25;fill-opacity:1;fill-rule:nonzero;stroke:#f43d25;stroke-width:1;stroke-linecap:butt;stroke-linejoin:round;stroke-miterlimit:10;stroke-dasharray:none;stroke-opacity:1"
         id="path2808" />
      <text
         xml:space="preserve"
         transform="scale(1,-1)"
         style="font-variant:normal;font-weight:normal;font-size:17px;font-family:DejaVuSansMono;-inkscape-font-specification:DejaVuSansMono;writing-mode:lr-tb;fill:#000000;fill-opacity:1;fill-rule:nonzero;stroke:none"
         id="text2812"
         x="696.66248"
         y="-330.83124"><tspan
           x="696.66248 706.89648 717.13049 727.3645 737.59851 747.83252 778.53448 788.76849 799.0025 809.23651 819.47052 829.70453 839.93848"
           y="-330.83124"
           sodipodi:role="line"
           id="tspan2810">large 640x360</tspan></text>
      <path
         d="m 666.0625,320.1375 -9.51057,-6.90983 3.63272,-11.18034 h 11.7557 l 3.63272,11.18034 z"
         style="fill:#800026;fill-opacity:1;fill-rule:nonzero;stroke:#800026;stroke-width:1;stroke-linecap:butt;stroke-linejoin:round;stroke-miterlimit:10;stroke-dasharray:none;stroke-opacity:1"
         id="path2814" />
      <text
         xml:space="preserve"
         transform="scale(1,-1)"
         style="font-variant:normal;font-weight:normal;font-size:17px;font-family:DejaVuSansMono;-inkscape-font-specification:DejaVuSansMono;writing-mode:lr-tb;fill:#000000;fill-opacity:1;fill-rule:nonzero;stroke:none"
         id="text2818"
         x="696.66248"
         y="-305.67499"><tspan
           x="696.66248 706.89648 717.13049 727.3645 737.59851 747.83252 778.53448 788.76849 799.0025 809.23651 819.47052 829.70453 839.93848"
           y="-305.67499"
           sodipodi:role="line"
           id="tspan2816">large 960x540</tspan></text>
    </g>
  </g>
</svg>
