<?xml version="1.0" encoding="UTF-8" standalone="no"?>
<!-- Created with Inkscape (http://www.inkscape.org/) -->

<svg
   version="1.1"
   id="svg1329"
   width="1210.7"
   height="461.52917"
   viewBox="0 0 1210.7 461.52917"
   sodipodi:docname="arrowsflat.svg"
   inkscape:version="1.2 (dc2aeda, 2022-05-15)"
   xmlns:inkscape="http://www.inkscape.org/namespaces/inkscape"
   xmlns:sodipodi="http://sodipodi.sourceforge.net/DTD/sodipodi-0.dtd"
   xmlns="http://www.w3.org/2000/svg"
   xmlns:svg="http://www.w3.org/2000/svg">
  <defs
     id="defs1333">
    <clipPath
       clipPathUnits="userSpaceOnUse"
       id="clipPath1349">
      <path
         d="M 84.278125,61.746875 H 698.07812 V 338.94687 H 84.278125 Z"
         id="path1347" />
    </clipPath>
    <clipPath
       clipPathUnits="userSpaceOnUse"
       id="clipPath1359">
      <path
         d="M 84.278125,61.746875 H 698.07812 V 338.94687 H 84.278125 Z"
         id="path1357" />
    </clipPath>
    <clipPath
       clipPathUnits="userSpaceOnUse"
       id="clipPath1369">
      <path
         d="M 84.278125,61.746875 H 698.07812 V 338.94687 H 84.278125 Z"
         id="path1367" />
    </clipPath>
    <clipPath
       clipPathUnits="userSpaceOnUse"
       id="clipPath1379">
      <path
         d="M 84.278125,61.746875 H 698.07812 V 338.94687 H 84.278125 Z"
         id="path1377" />
    </clipPath>
    <clipPath
       clipPathUnits="userSpaceOnUse"
       id="clipPath1389">
      <path
         d="M 84.278125,61.746875 H 698.07812 V 338.94687 H 84.278125 Z"
         id="path1387" />
    </clipPath>
    <clipPath
       clipPathUnits="userSpaceOnUse"
       id="clipPath1399">
      <path
         d="M 84.278125,61.746875 H 698.07812 V 338.94687 H 84.278125 Z"
         id="path1397" />
    </clipPath>
    <clipPath
       clipPathUnits="userSpaceOnUse"
       id="clipPath1409">
      <path
         d="M 84.278125,61.746875 H 698.07812 V 338.94687 H 84.278125 Z"
         id="path1407" />
    </clipPath>
    <clipPath
       clipPathUnits="userSpaceOnUse"
       id="clipPath1419">
      <path
         d="M 84.278125,61.746875 H 698.07812 V 338.94687 H 84.278125 Z"
         id="path1417" />
    </clipPath>
    <clipPath
       clipPathUnits="userSpaceOnUse"
       id="clipPath1429">
      <path
         d="M 84.278125,61.746875 H 698.07812 V 338.94687 H 84.278125 Z"
         id="path1427" />
    </clipPath>
    <clipPath
       clipPathUnits="userSpaceOnUse"
       id="clipPath1439">
      <path
         d="M 84.278125,61.746875 H 698.07812 V 338.94687 H 84.278125 Z"
         id="path1437" />
    </clipPath>
    <clipPath
       clipPathUnits="userSpaceOnUse"
       id="clipPath1449">
      <path
         d="M 84.278125,61.746875 H 698.07812 V 338.94687 H 84.278125 Z"
         id="path1447" />
    </clipPath>
    <clipPath
       clipPathUnits="userSpaceOnUse"
       id="clipPath1467">
      <path
         d="M 84.278125,61.746875 H 698.07812 V 338.94687 H 84.278125 Z"
         id="path1465" />
    </clipPath>
    <clipPath
       clipPathUnits="userSpaceOnUse"
       id="clipPath1485">
      <path
         d="M 84.278125,61.746875 H 698.07812 V 338.94687 H 84.278125 Z"
         id="path1483" />
    </clipPath>
    <clipPath
       clipPathUnits="userSpaceOnUse"
       id="clipPath1503">
      <path
         d="M 84.278125,61.746875 H 698.07812 V 338.94687 H 84.278125 Z"
         id="path1501" />
    </clipPath>
    <clipPath
       clipPathUnits="userSpaceOnUse"
       id="clipPath1521">
      <path
         d="M 84.278125,61.746875 H 698.07812 V 338.94687 H 84.278125 Z"
         id="path1519" />
    </clipPath>
    <clipPath
       clipPathUnits="userSpaceOnUse"
       id="clipPath1539">
      <path
         d="M 84.278125,61.746875 H 698.07812 V 338.94687 H 84.278125 Z"
         id="path1537" />
    </clipPath>
    <clipPath
       clipPathUnits="userSpaceOnUse"
       id="clipPath1565">
      <path
         d="M -1021,-463 H 1794 V 1233 H -1021 Z"
         id="path1563" />
    </clipPath>
    <clipPath
       clipPathUnits="userSpaceOnUse"
       id="clipPath1577">
      <path
         d="M -1021,-463 H 1794 V 1233 H -1021 Z"
         id="path1575" />
    </clipPath>
    <clipPath
       clipPathUnits="userSpaceOnUse"
       id="clipPath1587">
      <path
         d="M 84.278125,61.746875 H 698.07812 V 338.94687 H 84.278125 Z"
         id="path1585" />
    </clipPath>
    <clipPath
       clipPathUnits="userSpaceOnUse"
       id="clipPath1605">
      <path
         d="M 84.278125,61.746875 H 698.07812 V 338.94687 H 84.278125 Z"
         id="path1603" />
    </clipPath>
    <clipPath
       clipPathUnits="userSpaceOnUse"
       id="clipPath1623">
      <path
         d="M 84.278125,61.746875 H 698.07812 V 338.94687 H 84.278125 Z"
         id="path1621" />
    </clipPath>
    <clipPath
       clipPathUnits="userSpaceOnUse"
       id="clipPath1641">
      <path
         d="M 84.278125,61.746875 H 698.07812 V 338.94687 H 84.278125 Z"
         id="path1639" />
    </clipPath>
    <clipPath
       clipPathUnits="userSpaceOnUse"
       id="clipPath1659">
      <path
         d="M 84.278125,61.746875 H 698.07812 V 338.94687 H 84.278125 Z"
         id="path1657" />
    </clipPath>
    <clipPath
       clipPathUnits="userSpaceOnUse"
       id="clipPath1677">
      <path
         d="M 84.278125,61.746875 H 698.07812 V 338.94687 H 84.278125 Z"
         id="path1675" />
    </clipPath>
    <clipPath
       clipPathUnits="userSpaceOnUse"
       id="clipPath1703">
      <path
         d="M -1021,-463 H 1794 V 1233 H -1021 Z"
         id="path1701" />
    </clipPath>
    <clipPath
       clipPathUnits="userSpaceOnUse"
       id="clipPath1715">
      <path
         d="M -1021,-463 H 1794 V 1233 H -1021 Z"
         id="path1713" />
    </clipPath>
  </defs>
  <sodipodi:namedview
     id="namedview1331"
     pagecolor="#ffffff"
     bordercolor="#000000"
     borderopacity="0.25"
     inkscape:showpageshadow="2"
     inkscape:pageopacity="0.0"
     inkscape:pagecheckerboard="0"
     inkscape:deskcolor="#d1d1d1"
     showgrid="false"
     inkscape:zoom="1.0531099"
     inkscape:cx="515.14094"
     inkscape:cy="232.16951"
     inkscape:window-width="2560"
     inkscape:window-height="963"
     inkscape:window-x="0"
     inkscape:window-y="25"
     inkscape:window-maximized="1"
     inkscape:current-layer="g1337" />
  <g
     id="g1337"
     inkscape:groupmode="layer"
     inkscape:label="Page 1"
     transform="matrix(1.3333333,0,0,-1.3333333,0,461.52917)">
    <path
       d="M 0,0 H 908.025 V 346.14688 H 0 Z"
       style="fill:#ffffff;fill-opacity:1;fill-rule:nonzero;stroke:none"
       id="path1339" />
    <path
       d="M 84.278125,61.746875 H 698.07812 V 338.94687 H 84.278125 Z"
       style="fill:#ffffff;fill-opacity:1;fill-rule:nonzero;stroke:none"
       id="path1341" />
    <g
       id="g1343">
      <g
         id="g1345"
         clip-path="url(#clipPath1349)">
        <path
           d="m 670.17813,155.98324 c 2.65203,0 5.19579,1.05366 7.07106,2.92893 1.87527,1.87527 2.92894,4.41904 2.92894,7.07107 0,2.65203 -1.05367,5.1958 -2.92894,7.07107 -1.87527,1.87527 -4.41903,2.92893 -7.07106,2.92893 -2.65204,0 -5.1958,-1.05366 -7.07107,-2.92893 -1.87527,-1.87527 -2.92893,-4.41904 -2.92893,-7.07107 0,-2.65203 1.05366,-5.1958 2.92893,-7.07107 1.87527,-1.87527 4.41903,-2.92893 7.07107,-2.92893 z"
           style="fill:#febf5a;fill-opacity:1;fill-rule:nonzero;stroke:#febf5a;stroke-width:1;stroke-linecap:butt;stroke-linejoin:round;stroke-miterlimit:10;stroke-dasharray:none;stroke-opacity:1"
           id="path1351" />
      </g>
    </g>
    <g
       id="g1353">
      <g
         id="g1355"
         clip-path="url(#clipPath1359)">
        <path
           d="m 481.31659,178.89233 c 2.65203,0 5.19579,1.05366 7.07106,2.92893 1.87527,1.87527 2.92894,4.41904 2.92894,7.07107 0,2.65203 -1.05367,5.1958 -2.92894,7.07107 -1.87527,1.87527 -4.41903,2.92893 -7.07106,2.92893 -2.65203,0 -5.1958,-1.05366 -7.07107,-2.92893 -1.87527,-1.87527 -2.92893,-4.41904 -2.92893,-7.07107 0,-2.65203 1.05366,-5.1958 2.92893,-7.07107 1.87527,-1.87527 4.41904,-2.92893 7.07107,-2.92893 z"
           style="fill:#f43d25;fill-opacity:1;fill-rule:nonzero;stroke:#f43d25;stroke-width:1;stroke-linecap:butt;stroke-linejoin:round;stroke-miterlimit:10;stroke-dasharray:none;stroke-opacity:1"
           id="path1361" />
      </g>
    </g>
    <g
       id="g1363">
      <g
         id="g1365"
         clip-path="url(#clipPath1369)">
        <path
           d="m 382.59351,178.89233 c 2.65203,0 5.1958,1.05366 7.07107,2.92893 1.87527,1.87527 2.92893,4.41904 2.92893,7.07107 0,2.65203 -1.05366,5.1958 -2.92893,7.07107 -1.87527,1.87527 -4.41904,2.92893 -7.07107,2.92893 -2.65203,0 -5.1958,-1.05366 -7.07107,-2.92893 -1.87527,-1.87527 -2.92893,-4.41904 -2.92893,-7.07107 0,-2.65203 1.05366,-5.1958 2.92893,-7.07107 1.87527,-1.87527 4.41904,-2.92893 7.07107,-2.92893 z"
           style="fill:#800026;fill-opacity:1;fill-rule:nonzero;stroke:#800026;stroke-width:1;stroke-linecap:butt;stroke-linejoin:round;stroke-miterlimit:10;stroke-dasharray:none;stroke-opacity:1"
           id="path1371" />
      </g>
    </g>
    <g
       id="g1373">
      <g
         id="g1375"
         clip-path="url(#clipPath1379)">
        <path
           d="m 556.43197,290.52869 -10,-20 h 20 z"
           style="fill:#febf5a;fill-opacity:1;fill-rule:nonzero;stroke:#febf5a;stroke-width:1;stroke-linecap:butt;stroke-linejoin:round;stroke-miterlimit:10;stroke-dasharray:none;stroke-opacity:1"
           id="path1381" />
      </g>
    </g>
    <g
       id="g1383">
      <g
         id="g1385"
         clip-path="url(#clipPath1389)">
        <path
           d="m 348.25505,336.34687 -10,-20 h 20 z"
           style="fill:#f43d25;fill-opacity:1;fill-rule:nonzero;stroke:#f43d25;stroke-width:1;stroke-linecap:butt;stroke-linejoin:round;stroke-miterlimit:10;stroke-dasharray:none;stroke-opacity:1"
           id="path1391" />
      </g>
    </g>
    <g
       id="g1393">
      <g
         id="g1395"
         clip-path="url(#clipPath1399)">
        <path
           d="m 213.04736,336.34687 -10,-20 h 20 z"
           style="fill:#800026;fill-opacity:1;fill-rule:nonzero;stroke:#800026;stroke-width:1;stroke-linecap:butt;stroke-linejoin:round;stroke-miterlimit:10;stroke-dasharray:none;stroke-opacity:1"
           id="path1401" />
      </g>
    </g>
    <g
       id="g1403">
      <g
         id="g1405"
         clip-path="url(#clipPath1409)">
        <path
           d="m 271.72428,64.346875 h 20 v 20 h -20 z"
           style="fill:#f43d25;fill-opacity:1;fill-rule:nonzero;stroke:#f43d25;stroke-width:1;stroke-linecap:butt;stroke-linejoin:round;stroke-miterlimit:10;stroke-dasharray:none;stroke-opacity:1"
           id="path1411" />
      </g>
    </g>
    <g
       id="g1413">
      <g
         id="g1415"
         clip-path="url(#clipPath1419)">
        <path
           d="m 155.83197,64.346875 h 20 v 20 h -20 z"
           style="fill:#800026;fill-opacity:1;fill-rule:nonzero;stroke:#800026;stroke-width:1;stroke-linecap:butt;stroke-linejoin:round;stroke-miterlimit:10;stroke-dasharray:none;stroke-opacity:1"
           id="path1421" />
      </g>
    </g>
    <g
       id="g1423">
      <g
         id="g1425"
         clip-path="url(#clipPath1429)">
        <path
           d="m 249.53197,153.07415 -9.51056,-6.90983 3.63271,-11.18034 h 11.7557 l 3.63272,11.18034 z"
           style="fill:#f43d25;fill-opacity:1;fill-rule:nonzero;stroke:#f43d25;stroke-width:1;stroke-linecap:butt;stroke-linejoin:round;stroke-miterlimit:10;stroke-dasharray:none;stroke-opacity:1"
           id="path1431" />
      </g>
    </g>
    <g
       id="g1433">
      <g
         id="g1435"
         clip-path="url(#clipPath1439)">
        <path
           d="m 112.17812,153.07415 -9.51056,-6.90983 3.63271,-11.18034 h 11.75571 l 3.63271,11.18034 z"
           style="fill:#800026;fill-opacity:1;fill-rule:nonzero;stroke:#800026;stroke-width:1;stroke-linecap:butt;stroke-linejoin:round;stroke-miterlimit:10;stroke-dasharray:none;stroke-opacity:1"
           id="path1441" />
      </g>
    </g>
    <g
       id="g1443">
      <g
         id="g1445"
         clip-path="url(#clipPath1449)">
        <path
           d="M 122.90889,61.746875 V 338.94687"
           style="fill:none;stroke:#b0b0b0;stroke-width:0.8;stroke-linecap:butt;stroke-linejoin:round;stroke-miterlimit:10;stroke-dasharray:2.96, 1.28;stroke-dashoffset:0;stroke-opacity:0.7"
           id="path1451" />
      </g>
    </g>
    <g
       id="g1453">
      <path
         d="m 122.90889,61.746875 v -3.5"
         style="fill:#000000;fill-opacity:1;fill-rule:nonzero;stroke:#000000;stroke-width:0.8;stroke-linecap:butt;stroke-linejoin:round;stroke-miterlimit:10;stroke-dasharray:none;stroke-opacity:1"
         id="path1455" />
      <text
         xml:space="preserve"
         transform="matrix(1,0,0,-1,104.76827,40.309375)"
         style="font-variant:normal;font-weight:normal;font-size:19px;font-family:DejaVuSans;-inkscape-font-specification:DejaVuSans;writing-mode:lr-tb;fill:#000000;fill-opacity:1;fill-rule:nonzero;stroke:none"
         id="text1459"><tspan
           x="0 12.084 24.167999"
           y="0"
           sodipodi:role="line"
           id="tspan1457">100</tspan></text>
    </g>
    <g
       id="g1461">
      <g
         id="g1463"
         clip-path="url(#clipPath1467)">
        <path
           d="M 230.21659,61.746875 V 338.94687"
           style="fill:none;stroke:#b0b0b0;stroke-width:0.8;stroke-linecap:butt;stroke-linejoin:round;stroke-miterlimit:10;stroke-dasharray:2.96, 1.28;stroke-dashoffset:0;stroke-opacity:0.7"
           id="path1469" />
      </g>
    </g>
    <g
       id="g1471">
      <path
         d="m 230.21659,61.746875 v -3.5"
         style="fill:#000000;fill-opacity:1;fill-rule:nonzero;stroke:#000000;stroke-width:0.8;stroke-linecap:butt;stroke-linejoin:round;stroke-miterlimit:10;stroke-dasharray:none;stroke-opacity:1"
         id="path1473" />
      <text
         xml:space="preserve"
         transform="matrix(1,0,0,-1,212.07596,40.309375)"
         style="font-variant:normal;font-weight:normal;font-size:19px;font-family:DejaVuSans;-inkscape-font-specification:DejaVuSans;writing-mode:lr-tb;fill:#000000;fill-opacity:1;fill-rule:nonzero;stroke:none"
         id="text1477"><tspan
           x="0 12.084 24.167999"
           y="0"
           sodipodi:role="line"
           id="tspan1475">150</tspan></text>
    </g>
    <g
       id="g1479">
      <g
         id="g1481"
         clip-path="url(#clipPath1485)">
        <path
           d="M 337.52428,61.746875 V 338.94687"
           style="fill:none;stroke:#b0b0b0;stroke-width:0.8;stroke-linecap:butt;stroke-linejoin:round;stroke-miterlimit:10;stroke-dasharray:2.96, 1.28;stroke-dashoffset:0;stroke-opacity:0.7"
           id="path1487" />
      </g>
    </g>
    <g
       id="g1489">
      <path
         d="m 337.52428,61.746875 v -3.5"
         style="fill:#000000;fill-opacity:1;fill-rule:nonzero;stroke:#000000;stroke-width:0.8;stroke-linecap:butt;stroke-linejoin:round;stroke-miterlimit:10;stroke-dasharray:none;stroke-opacity:1"
         id="path1491" />
      <text
         xml:space="preserve"
         transform="matrix(1,0,0,-1,319.38365,40.309375)"
         style="font-variant:normal;font-weight:normal;font-size:19px;font-family:DejaVuSans;-inkscape-font-specification:DejaVuSans;writing-mode:lr-tb;fill:#000000;fill-opacity:1;fill-rule:nonzero;stroke:none"
         id="text1495"><tspan
           x="0 12.084 24.167999"
           y="0"
           sodipodi:role="line"
           id="tspan1493">200</tspan></text>
    </g>
    <g
       id="g1497">
      <g
         id="g1499"
         clip-path="url(#clipPath1503)">
        <path
           d="M 444.83197,61.746875 V 338.94687"
           style="fill:none;stroke:#b0b0b0;stroke-width:0.8;stroke-linecap:butt;stroke-linejoin:round;stroke-miterlimit:10;stroke-dasharray:2.96, 1.28;stroke-dashoffset:0;stroke-opacity:0.7"
           id="path1505" />
      </g>
    </g>
    <g
       id="g1507">
      <path
         d="m 444.83197,61.746875 v -3.5"
         style="fill:#000000;fill-opacity:1;fill-rule:nonzero;stroke:#000000;stroke-width:0.8;stroke-linecap:butt;stroke-linejoin:round;stroke-miterlimit:10;stroke-dasharray:none;stroke-opacity:1"
         id="path1509" />
      <text
         xml:space="preserve"
         transform="matrix(1,0,0,-1,426.69135,40.309375)"
         style="font-variant:normal;font-weight:normal;font-size:19px;font-family:DejaVuSans;-inkscape-font-specification:DejaVuSans;writing-mode:lr-tb;fill:#000000;fill-opacity:1;fill-rule:nonzero;stroke:none"
         id="text1513"><tspan
           x="0 12.084 24.167999"
           y="0"
           sodipodi:role="line"
           id="tspan1511">250</tspan></text>
    </g>
    <g
       id="g1515">
      <g
         id="g1517"
         clip-path="url(#clipPath1521)">
        <path
           d="M 552.13966,61.746875 V 338.94687"
           style="fill:none;stroke:#b0b0b0;stroke-width:0.8;stroke-linecap:butt;stroke-linejoin:round;stroke-miterlimit:10;stroke-dasharray:2.96, 1.28;stroke-dashoffset:0;stroke-opacity:0.7"
           id="path1523" />
      </g>
    </g>
    <g
       id="g1525">
      <path
         d="m 552.13966,61.746875 v -3.5"
         style="fill:#000000;fill-opacity:1;fill-rule:nonzero;stroke:#000000;stroke-width:0.8;stroke-linecap:butt;stroke-linejoin:round;stroke-miterlimit:10;stroke-dasharray:none;stroke-opacity:1"
         id="path1527" />
      <text
         xml:space="preserve"
         transform="matrix(1,0,0,-1,533.99904,40.309375)"
         style="font-variant:normal;font-weight:normal;font-size:19px;font-family:DejaVuSans;-inkscape-font-specification:DejaVuSans;writing-mode:lr-tb;fill:#000000;fill-opacity:1;fill-rule:nonzero;stroke:none"
         id="text1531"><tspan
           x="0 12.084 24.167999"
           y="0"
           sodipodi:role="line"
           id="tspan1529">300</tspan></text>
    </g>
    <g
       id="g1533">
      <g
         id="g1535"
         clip-path="url(#clipPath1539)">
        <path
           d="M 659.44736,61.746875 V 338.94687"
           style="fill:none;stroke:#b0b0b0;stroke-width:0.8;stroke-linecap:butt;stroke-linejoin:round;stroke-miterlimit:10;stroke-dasharray:2.96, 1.28;stroke-dashoffset:0;stroke-opacity:0.7"
           id="path1541" />
      </g>
    </g>
    <g
       id="g1543">
      <path
         d="m 659.44736,61.746875 v -3.5"
         style="fill:#000000;fill-opacity:1;fill-rule:nonzero;stroke:#000000;stroke-width:0.8;stroke-linecap:butt;stroke-linejoin:round;stroke-miterlimit:10;stroke-dasharray:none;stroke-opacity:1"
         id="path1545" />
      <text
         xml:space="preserve"
         transform="matrix(1,0,0,-1,641.30673,40.309375)"
         style="font-variant:normal;font-weight:normal;font-size:19px;font-family:DejaVuSans;-inkscape-font-specification:DejaVuSans;writing-mode:lr-tb;fill:#000000;fill-opacity:1;fill-rule:nonzero;stroke:none"
         id="text1549"><tspan
           x="0 12.084 24.167999"
           y="0"
           sodipodi:role="line"
           id="tspan1547">350</tspan></text>
      <g
         id="g1551"
         transform="translate(327.17812,12.60625)">
        <text
           xml:space="preserve"
           transform="matrix(1,0,0,-1,40.180664,0.703125)"
           style="font-variant:normal;font-weight:normal;font-size:26px;font-family:DejaVuSans;-inkscape-font-specification:DejaVuSans;writing-mode:lr-tb;fill:#000000;fill-opacity:1;fill-rule:nonzero;stroke:none"
           id="text1555"><tspan
             x="0 14.955078 30.633789 47.137695"
             y="0"
             sodipodi:role="line"
             id="tspan1553">FPS </tspan></text>
        <g
           id="g1557"
           transform="matrix(0.026,0,0,0.026,5.0654297,0.703125)">
          <g
             id="g1559">
            <g
               id="g1561"
               clip-path="url(#clipPath1565)">
              <path
                 d="M 789,335 V 292 L 597,100 539,158 652,272 H 57 v 83 h 595 l -113,114 58,58 192,-192"
                 style="fill:#000000;fill-opacity:1;fill-rule:nonzero;stroke:none"
                 id="path1567" />
            </g>
          </g>
        </g>
        <g
           id="g1569"
           transform="matrix(0.026,0,0,0.026,100.64844,0.703125)">
          <g
             id="g1571">
            <g
               id="g1573"
               clip-path="url(#clipPath1577)">
              <path
                 d="M 789,335 V 292 L 597,100 539,158 652,272 H 57 v 83 h 595 l -113,114 58,58 192,-192"
                 style="fill:#000000;fill-opacity:1;fill-rule:nonzero;stroke:none"
                 id="path1579" />
            </g>
          </g>
        </g>
      </g>
    </g>
    <g
       id="g1581">
      <g
         id="g1583"
         clip-path="url(#clipPath1587)">
        <path
           d="M 84.278125,326.34687 H 698.07812"
           style="fill:none;stroke:#b0b0b0;stroke-width:0.8;stroke-linecap:butt;stroke-linejoin:round;stroke-miterlimit:10;stroke-dasharray:2.96, 1.28;stroke-dashoffset:0;stroke-opacity:0.7"
           id="path1589" />
      </g>
    </g>
    <g
       id="g1591">
      <path
         d="m 84.278125,326.34687 h -3.5"
         style="fill:#000000;fill-opacity:1;fill-rule:nonzero;stroke:#000000;stroke-width:0.8;stroke-linecap:butt;stroke-linejoin:round;stroke-miterlimit:10;stroke-dasharray:none;stroke-opacity:1"
         id="path1593" />
      <text
         xml:space="preserve"
         transform="matrix(1,0,0,-1,37.2,319.51094)"
         style="font-variant:normal;font-weight:normal;font-size:18px;font-family:DejaVuSans;-inkscape-font-specification:DejaVuSans;writing-mode:lr-tb;fill:#000000;fill-opacity:1;fill-rule:nonzero;stroke:none"
         id="text1597"><tspan
           x="0 11.448 17.172001 28.620001"
           y="0"
           sodipodi:role="line"
           id="tspan1595">0.58</tspan></text>
    </g>
    <g
       id="g1599">
      <g
         id="g1601"
         clip-path="url(#clipPath1605)">
        <path
           d="M 84.278125,280.52869 H 698.07812"
           style="fill:none;stroke:#b0b0b0;stroke-width:0.8;stroke-linecap:butt;stroke-linejoin:round;stroke-miterlimit:10;stroke-dasharray:2.96, 1.28;stroke-dashoffset:0;stroke-opacity:0.7"
           id="path1607" />
      </g>
    </g>
    <g
       id="g1609">
      <path
         d="m 84.278125,280.52869 h -3.5"
         style="fill:#000000;fill-opacity:1;fill-rule:nonzero;stroke:#000000;stroke-width:0.8;stroke-linecap:butt;stroke-linejoin:round;stroke-miterlimit:10;stroke-dasharray:none;stroke-opacity:1"
         id="path1611" />
      <text
         xml:space="preserve"
         transform="matrix(1,0,0,-1,37.2,273.69276)"
         style="font-variant:normal;font-weight:normal;font-size:18px;font-family:DejaVuSans;-inkscape-font-specification:DejaVuSans;writing-mode:lr-tb;fill:#000000;fill-opacity:1;fill-rule:nonzero;stroke:none"
         id="text1615"><tspan
           x="0 11.448 17.172001 28.620001"
           y="0"
           sodipodi:role="line"
           id="tspan1613">0.60</tspan></text>
    </g>
    <g
       id="g1617">
      <g
         id="g1619"
         clip-path="url(#clipPath1623)">
        <path
           d="M 84.278125,234.71051 H 698.07812"
           style="fill:none;stroke:#b0b0b0;stroke-width:0.8;stroke-linecap:butt;stroke-linejoin:round;stroke-miterlimit:10;stroke-dasharray:2.96, 1.28;stroke-dashoffset:0;stroke-opacity:0.7"
           id="path1625" />
      </g>
    </g>
    <g
       id="g1627">
      <path
         d="m 84.278125,234.71051 h -3.5"
         style="fill:#000000;fill-opacity:1;fill-rule:nonzero;stroke:#000000;stroke-width:0.8;stroke-linecap:butt;stroke-linejoin:round;stroke-miterlimit:10;stroke-dasharray:none;stroke-opacity:1"
         id="path1629" />
      <text
         xml:space="preserve"
         transform="matrix(1,0,0,-1,37.2,227.87457)"
         style="font-variant:normal;font-weight:normal;font-size:18px;font-family:DejaVuSans;-inkscape-font-specification:DejaVuSans;writing-mode:lr-tb;fill:#000000;fill-opacity:1;fill-rule:nonzero;stroke:none"
         id="text1633"><tspan
           x="0 11.448 17.172001 28.620001"
           y="0"
           sodipodi:role="line"
           id="tspan1631">0.62</tspan></text>
    </g>
    <g
       id="g1635">
      <g
         id="g1637"
         clip-path="url(#clipPath1641)">
        <path
           d="M 84.278125,188.89233 H 698.07812"
           style="fill:none;stroke:#b0b0b0;stroke-width:0.8;stroke-linecap:butt;stroke-linejoin:round;stroke-miterlimit:10;stroke-dasharray:2.96, 1.28;stroke-dashoffset:0;stroke-opacity:0.7"
           id="path1643" />
      </g>
    </g>
    <g
       id="g1645">
      <path
         d="m 84.278125,188.89233 h -3.5"
         style="fill:#000000;fill-opacity:1;fill-rule:nonzero;stroke:#000000;stroke-width:0.8;stroke-linecap:butt;stroke-linejoin:round;stroke-miterlimit:10;stroke-dasharray:none;stroke-opacity:1"
         id="path1647" />
      <text
         xml:space="preserve"
         transform="matrix(1,0,0,-1,37.2,182.05639)"
         style="font-variant:normal;font-weight:normal;font-size:18px;font-family:DejaVuSans;-inkscape-font-specification:DejaVuSans;writing-mode:lr-tb;fill:#000000;fill-opacity:1;fill-rule:nonzero;stroke:none"
         id="text1651"><tspan
           x="0 11.448 17.172001 28.620001"
           y="0"
           sodipodi:role="line"
           id="tspan1649">0.64</tspan></text>
    </g>
    <g
       id="g1653">
      <g
         id="g1655"
         clip-path="url(#clipPath1659)">
        <path
           d="M 84.278125,143.07415 H 698.07812"
           style="fill:none;stroke:#b0b0b0;stroke-width:0.8;stroke-linecap:butt;stroke-linejoin:round;stroke-miterlimit:10;stroke-dasharray:2.96, 1.28;stroke-dashoffset:0;stroke-opacity:0.7"
           id="path1661" />
      </g>
    </g>
    <g
       id="g1663">
      <path
         d="m 84.278125,143.07415 h -3.5"
         style="fill:#000000;fill-opacity:1;fill-rule:nonzero;stroke:#000000;stroke-width:0.8;stroke-linecap:butt;stroke-linejoin:round;stroke-miterlimit:10;stroke-dasharray:none;stroke-opacity:1"
         id="path1665" />
      <text
         xml:space="preserve"
         transform="matrix(1,0,0,-1,37.2,136.23821)"
         style="font-variant:normal;font-weight:normal;font-size:18px;font-family:DejaVuSans;-inkscape-font-specification:DejaVuSans;writing-mode:lr-tb;fill:#000000;fill-opacity:1;fill-rule:nonzero;stroke:none"
         id="text1669"><tspan
           x="0 11.448 17.172001 28.620001"
           y="0"
           sodipodi:role="line"
           id="tspan1667">0.66</tspan></text>
    </g>
    <g
       id="g1671">
      <g
         id="g1673"
         clip-path="url(#clipPath1677)">
        <path
           d="M 84.278125,97.255966 H 698.07812"
           style="fill:none;stroke:#b0b0b0;stroke-width:0.8;stroke-linecap:butt;stroke-linejoin:round;stroke-miterlimit:10;stroke-dasharray:2.96, 1.28;stroke-dashoffset:0;stroke-opacity:0.7"
           id="path1679" />
      </g>
    </g>
    <g
       id="g1681">
      <path
         d="m 84.278125,97.255966 h -3.5"
         style="fill:#000000;fill-opacity:1;fill-rule:nonzero;stroke:#000000;stroke-width:0.8;stroke-linecap:butt;stroke-linejoin:round;stroke-miterlimit:10;stroke-dasharray:none;stroke-opacity:1"
         id="path1683" />
      <text
         xml:space="preserve"
         transform="matrix(1,0,0,-1,37.2,90.420028)"
         style="font-variant:normal;font-weight:normal;font-size:18px;font-family:DejaVuSans;-inkscape-font-specification:DejaVuSans;writing-mode:lr-tb;fill:#000000;fill-opacity:1;fill-rule:nonzero;stroke:none"
         id="text1687"><tspan
           x="0 11.448 17.172001 28.620001"
           y="0"
           sodipodi:role="line"
           id="tspan1685">0.68</tspan></text>
      <g
         id="g1689"
         transform="rotate(90,-27.823437,55.023437)">
        <text
           xml:space="preserve"
           transform="matrix(1,0,0,-1,40.180664,0.25)"
           style="font-variant:normal;font-weight:normal;font-size:26px;font-family:DejaVuSans;-inkscape-font-specification:DejaVuSans;writing-mode:lr-tb;fill:#000000;fill-opacity:1;fill-rule:nonzero;stroke:none"
           id="text1693"><tspan
             x="0 16.503906 33.007812 49.003906 65 81.503906 89.768555 106.19629 116.88574 127.5752 143.48242 154.17188"
             y="0"
             sodipodi:role="line"
             id="tspan1691">Speed Error </tspan></text>
        <g
           id="g1695"
           transform="matrix(0.026,0,0,0.026,5.0654297,0.25)">
          <g
             id="g1697">
            <g
               id="g1699"
               clip-path="url(#clipPath1703)">
              <path
                 d="m 49,292 v 43 L 241,527 299,469 186,355 H 781 V 272 H 186 L 299,158 241,100 49,292"
                 style="fill:#000000;fill-opacity:1;fill-rule:nonzero;stroke:none"
                 id="path1705" />
            </g>
          </g>
        </g>
        <g
           id="g1707"
           transform="matrix(0.026,0,0,0.026,207.68262,0.25)">
          <g
             id="g1709">
            <g
               id="g1711"
               clip-path="url(#clipPath1715)">
              <path
                 d="m 49,292 v 43 L 241,527 299,469 186,355 H 781 V 272 H 186 L 299,158 241,100 49,292"
                 style="fill:#000000;fill-opacity:1;fill-rule:nonzero;stroke:none"
                 id="path1717" />
            </g>
          </g>
        </g>
      </g>
      <path
         d="M 84.278125,61.746875 V 338.94687"
         style="fill:none;stroke:#000000;stroke-width:0.8;stroke-linecap:square;stroke-linejoin:miter;stroke-miterlimit:10;stroke-dasharray:none;stroke-opacity:1"
         id="path1719" />
      <path
         d="M 698.07812,61.746875 V 338.94687"
         style="fill:none;stroke:#000000;stroke-width:0.8;stroke-linecap:square;stroke-linejoin:miter;stroke-miterlimit:10;stroke-dasharray:none;stroke-opacity:1"
         id="path1721" />
      <path
         d="M 84.278125,61.746875 H 698.07812"
         style="fill:none;stroke:#000000;stroke-width:0.8;stroke-linecap:square;stroke-linejoin:miter;stroke-miterlimit:10;stroke-dasharray:none;stroke-opacity:1"
         id="path1723" />
      <path
         d="M 84.278125,338.94687 H 698.07812"
         style="fill:none;stroke:#000000;stroke-width:0.8;stroke-linecap:square;stroke-linejoin:miter;stroke-miterlimit:10;stroke-dasharray:none;stroke-opacity:1"
         id="path1725" />
      <path
         d="M 709.97812,68.453125 H 897.425 c 2.26667,0 3.4,1.133333 3.4,3.4 V 328.84063 c 0,2.26666 -1.13333,3.4 -3.4,3.4 H 709.97812 c -2.26666,0 -3.4,-1.13334 -3.4,-3.4 V 71.853125 c 0,-2.266667 1.13334,-3.4 3.4,-3.4 z"
         style="fill:#ffffff;fill-opacity:0.8;fill-rule:nonzero;stroke:#cccccc;stroke-width:1;stroke-linecap:butt;stroke-linejoin:miter;stroke-miterlimit:10;stroke-dasharray:none;stroke-opacity:0.8"
         id="path1727"
         sodipodi:nodetypes="sssssssss" />
      <path
         d="m 730.37812,301.77812 c 2.65204,0 5.1958,1.05367 7.07107,2.92894 1.87527,1.87527 2.92893,4.41903 2.92893,7.07106 0,2.65204 -1.05366,5.1958 -2.92893,7.07107 -1.87527,1.87527 -4.41903,2.92893 -7.07107,2.92893 -2.65203,0 -5.19579,-1.05366 -7.07106,-2.92893 -1.87527,-1.87527 -2.92894,-4.41903 -2.92894,-7.07107 0,-2.65203 1.05367,-5.19579 2.92894,-7.07106 1.87527,-1.87527 4.41903,-2.92894 7.07106,-2.92894 z"
         style="fill:#febf5a;fill-opacity:1;fill-rule:nonzero;stroke:#febf5a;stroke-width:1;stroke-linecap:butt;stroke-linejoin:round;stroke-miterlimit:10;stroke-dasharray:none;stroke-opacity:1"
         id="path1733" />
      <text
         xml:space="preserve"
         transform="scale(1,-1)"
         style="font-variant:normal;font-weight:normal;font-size:17px;font-family:DejaVuSansMono;-inkscape-font-specification:DejaVuSansMono;writing-mode:lr-tb;fill:#000000;fill-opacity:1;fill-rule:nonzero;stroke:none"
         id="text1737"
         x="760.97815"
         y="-307.31561"><tspan
           x="760.97815 771.2121 781.44611 791.68011 801.91412 842.8501 853.08411 863.31812 873.55212 883.78613"
           y="-307.31561"
           sodipodi:role="line"
           id="tspan1735">nano int8 </tspan></text>
      <path
         d="m 730.37812,276.74687 c 2.65204,0 5.1958,1.05367 7.07107,2.92894 1.87527,1.87527 2.92893,4.41903 2.92893,7.07106 0,2.65204 -1.05366,5.1958 -2.92893,7.07107 -1.87527,1.87527 -4.41903,2.92893 -7.07107,2.92893 -2.65203,0 -5.19579,-1.05366 -7.07106,-2.92893 -1.87527,-1.87527 -2.92894,-4.41903 -2.92894,-7.07107 0,-2.65203 1.05367,-5.19579 2.92894,-7.07106 1.87527,-1.87527 4.41903,-2.92894 7.07106,-2.92894 z"
         style="fill:#f43d25;fill-opacity:1;fill-rule:nonzero;stroke:#f43d25;stroke-width:1;stroke-linecap:butt;stroke-linejoin:round;stroke-miterlimit:10;stroke-dasharray:none;stroke-opacity:1"
         id="path1739" />
      <text
         xml:space="preserve"
         transform="scale(1,-1)"
         style="font-variant:normal;font-weight:normal;font-size:17px;font-family:DejaVuSansMono;-inkscape-font-specification:DejaVuSansMono;writing-mode:lr-tb;fill:#000000;fill-opacity:1;fill-rule:nonzero;stroke:none"
         id="text1743"
         x="760.97815"
         y="-282.28436"><tspan
           x="760.97815 771.2121 781.44611 791.68011 801.91412 842.8501 853.08411 863.31812 873.55212 883.78613"
           y="-282.28436"
           sodipodi:role="line"
           id="tspan1741">nano fp16 </tspan></text>
      <path
         d="m 730.37812,251.71562 c 2.65204,0 5.1958,1.05367 7.07107,2.92894 1.87527,1.87527 2.92893,4.41903 2.92893,7.07106 0,2.65204 -1.05366,5.1958 -2.92893,7.07107 -1.87527,1.87527 -4.41903,2.92893 -7.07107,2.92893 -2.65203,0 -5.19579,-1.05366 -7.07106,-2.92893 -1.87527,-1.87527 -2.92894,-4.41903 -2.92894,-7.07107 0,-2.65203 1.05367,-5.19579 2.92894,-7.07106 1.87527,-1.87527 4.41903,-2.92894 7.07106,-2.92894 z"
         style="fill:#800026;fill-opacity:1;fill-rule:nonzero;stroke:#800026;stroke-width:1;stroke-linecap:butt;stroke-linejoin:round;stroke-miterlimit:10;stroke-dasharray:none;stroke-opacity:1"
         id="path1745" />
      <text
         xml:space="preserve"
         transform="scale(1,-1)"
         style="font-variant:normal;font-weight:normal;font-size:17px;font-family:DejaVuSansMono;-inkscape-font-specification:DejaVuSansMono;writing-mode:lr-tb;fill:#000000;fill-opacity:1;fill-rule:nonzero;stroke:none"
         id="text1749"
         x="760.97815"
         y="-257.25311"><tspan
           x="760.97815 771.2121 781.44611 791.68011 801.91412 842.8501 853.08411 863.31812 873.55212 883.78613"
           y="-257.25311"
           sodipodi:role="line"
           id="tspan1747">nano fp32 </tspan></text>
      <path
         d="m 730.37812,246.68437 -10,-20 h 20 z"
         style="fill:#febf5a;fill-opacity:1;fill-rule:nonzero;stroke:#febf5a;stroke-width:1;stroke-linecap:butt;stroke-linejoin:round;stroke-miterlimit:10;stroke-dasharray:none;stroke-opacity:1"
         id="path1751" />
      <text
         xml:space="preserve"
         transform="scale(1,-1)"
         style="font-variant:normal;font-weight:normal;font-size:17px;font-family:DejaVuSansMono;-inkscape-font-specification:DejaVuSansMono;writing-mode:lr-tb;fill:#000000;fill-opacity:1;fill-rule:nonzero;stroke:none"
         id="text1755"
         x="760.97815"
         y="-232.22186"><tspan
           x="760.97815 771.2121 781.44611 791.68011 801.91412 812.14813 842.8501 853.08411 863.31812 873.55212 883.78613"
           y="-232.22186"
           sodipodi:role="line"
           id="tspan1753">small int8 </tspan></text>
      <path
         d="m 730.37812,221.65312 -10,-20 h 20 z"
         style="fill:#f43d25;fill-opacity:1;fill-rule:nonzero;stroke:#f43d25;stroke-width:1;stroke-linecap:butt;stroke-linejoin:round;stroke-miterlimit:10;stroke-dasharray:none;stroke-opacity:1"
         id="path1757" />
      <text
         xml:space="preserve"
         transform="scale(1,-1)"
         style="font-variant:normal;font-weight:normal;font-size:17px;font-family:DejaVuSansMono;-inkscape-font-specification:DejaVuSansMono;writing-mode:lr-tb;fill:#000000;fill-opacity:1;fill-rule:nonzero;stroke:none"
         id="text1761"
         x="760.97815"
         y="-207.19061"><tspan
           x="760.97815 771.2121 781.44611 791.68011 801.91412 812.14813 842.8501 853.08411 863.31812 873.55212 883.78613"
           y="-207.19061"
           sodipodi:role="line"
           id="tspan1759">small fp16 </tspan></text>
      <path
         d="m 730.37812,196.62187 -10,-20 h 20 z"
         style="fill:#800026;fill-opacity:1;fill-rule:nonzero;stroke:#800026;stroke-width:1;stroke-linecap:butt;stroke-linejoin:round;stroke-miterlimit:10;stroke-dasharray:none;stroke-opacity:1"
         id="path1763" />
      <text
         xml:space="preserve"
         transform="scale(1,-1)"
         style="font-variant:normal;font-weight:normal;font-size:17px;font-family:DejaVuSansMono;-inkscape-font-specification:DejaVuSansMono;writing-mode:lr-tb;fill:#000000;fill-opacity:1;fill-rule:nonzero;stroke:none"
         id="text1767"
         x="760.97815"
         y="-182.15936"><tspan
           x="760.97815 771.2121 781.44611 791.68011 801.91412 812.14813 842.8501 853.08411 863.31812 873.55212 883.78613"
           y="-182.15936"
           sodipodi:role="line"
           id="tspan1765">small fp32 </tspan></text>
      <path
         d="m 720.37812,151.59062 h 20 v 20 h -20 z"
         style="fill:#f43d25;fill-opacity:1;fill-rule:nonzero;stroke:#f43d25;stroke-width:1;stroke-linecap:butt;stroke-linejoin:round;stroke-miterlimit:10;stroke-dasharray:none;stroke-opacity:1"
         id="path1769" />
      <text
         xml:space="preserve"
         transform="scale(1,-1)"
         style="font-variant:normal;font-weight:normal;font-size:17px;font-family:DejaVuSansMono;-inkscape-font-specification:DejaVuSansMono;writing-mode:lr-tb;fill:#000000;fill-opacity:1;fill-rule:nonzero;stroke:none"
         id="text1773"
         x="760.97815"
         y="-157.12811"><tspan
           x="760.97815 771.2121 781.44611 791.68011 801.91412 812.14813 822.38214 842.8501 853.08411 863.31812 873.55212 883.78613"
           y="-157.12811"
           sodipodi:role="line"
           id="tspan1771">medium fp16 </tspan></text>
      <path
         d="m 720.37812,126.55937 h 20 v 20 h -20 z"
         style="fill:#800026;fill-opacity:1;fill-rule:nonzero;stroke:#800026;stroke-width:1;stroke-linecap:butt;stroke-linejoin:round;stroke-miterlimit:10;stroke-dasharray:none;stroke-opacity:1"
         id="path1775" />
      <text
         xml:space="preserve"
         transform="scale(1,-1)"
         style="font-variant:normal;font-weight:normal;font-size:17px;font-family:DejaVuSansMono;-inkscape-font-specification:DejaVuSansMono;writing-mode:lr-tb;fill:#000000;fill-opacity:1;fill-rule:nonzero;stroke:none"
         id="text1779"
         x="760.97815"
         y="-132.09688"><tspan
           x="760.97815 771.2121 781.44611 791.68011 801.91412 812.14813 822.38214 842.8501 853.08411 863.31812 873.55212 883.78613"
           y="-132.09688"
           sodipodi:role="line"
           id="tspan1777">medium fp32 </tspan></text>
      <path
         d="m 730.37812,121.52813 -9.51056,-6.90983 3.63271,-11.18034 h 11.75571 l 3.63271,11.18034 z"
         style="fill:#f43d25;fill-opacity:1;fill-rule:nonzero;stroke:#f43d25;stroke-width:1;stroke-linecap:butt;stroke-linejoin:round;stroke-miterlimit:10;stroke-dasharray:none;stroke-opacity:1"
         id="path1781" />
      <text
         xml:space="preserve"
         transform="scale(1,-1)"
         style="font-variant:normal;font-weight:normal;font-size:17px;font-family:DejaVuSansMono;-inkscape-font-specification:DejaVuSansMono;writing-mode:lr-tb;fill:#000000;fill-opacity:1;fill-rule:nonzero;stroke:none"
         id="text1785"
         x="760.97815"
         y="-107.06563"><tspan
           x="760.97815 771.2121 781.44611 791.68011 801.91412 812.14813 842.8501 853.08411 863.31812 873.55212 883.78613"
           y="-107.06563"
           sodipodi:role="line"
           id="tspan1783">large fp16 </tspan></text>
      <path
         d="m 730.37812,96.371875 -9.51056,-6.90983 3.63271,-11.18034 h 11.75571 l 3.63271,11.18034 z"
         style="fill:#800026;fill-opacity:1;fill-rule:nonzero;stroke:#800026;stroke-width:1;stroke-linecap:butt;stroke-linejoin:round;stroke-miterlimit:10;stroke-dasharray:none;stroke-opacity:1"
         id="path1787" />
      <text
         xml:space="preserve"
         transform="scale(1,-1)"
         style="font-variant:normal;font-weight:normal;font-size:17px;font-family:DejaVuSansMono;-inkscape-font-specification:DejaVuSansMono;writing-mode:lr-tb;fill:#000000;fill-opacity:1;fill-rule:nonzero;stroke:none"
         id="text1791"
         x="760.97815"
         y="-81.909378"><tspan
           x="760.97815 771.2121 781.44611 791.68011 801.91412 812.14813 842.8501 853.08411 863.31812 873.55212 883.78613"
           y="-81.909378"
           sodipodi:role="line"
           id="tspan1789">large fp32 </tspan></text>
    </g>
  </g>
</svg>
